<svg width="239" height="52" viewBox="0 0 239 52" fill="none" xmlns="http://www.w3.org/2000/svg">
<g clip-path="url(#clip0_381_260)">
<g filter="url(#filter0_d_381_260)">
<path d="M190 9.53754e-07H237.124C237.124 0.105736 237.103 0.211442 237.081 0.317177C236.8 1.25324 236.973 2.22043 236.498 3.21869C236.336 3.58876 236.466 3.95573 236.185 4.31025C236.034 4.49995 235.332 4.76429 235.224 4.92911C234.965 5.33339 235.796 5.59148 236.379 6.02375C237.027 6.50577 237.319 7.13709 237.589 7.64399C237.697 7.85235 237.697 7.93633 237.502 8.1478C237.049 8.60805 235.969 9.02166 235.526 9.51302C234.965 10.1443 234.813 10.816 233.507 11.3727L233.474 11.3852C232.675 11.721 231.444 11.9107 230.774 12.2777C229.846 12.7784 229.392 13.1826 227.74 13.5776C226.638 13.8357 225.31 14.013 224.154 14.2617C223.01 14.5074 220.072 15.0641 219.867 15.5057C219.813 15.6425 221.779 16.3671 222.07 16.5133C223.971 17.4867 225.645 18.5689 226.951 19.6232C228.463 20.864 227.61 21.7783 226.282 22.988C225.666 23.5353 225.213 24.1386 225.72 24.7108C226.293 25.3701 227.589 25.905 226.919 26.6234C225.98 27.6341 222.923 28.1441 222.189 29.1331C221.725 29.7737 221.735 30.6351 220.601 31.2135C220.159 31.4343 219.413 31.5401 218.949 31.7827C217.729 32.4264 217.88 33.3936 217.729 34.0933C217.61 34.6126 216.94 34.6592 216.077 35.0915C213.809 36.2142 219.025 37.7691 221.379 38.5061C222.297 38.7953 223.215 39.0534 223.474 39.4204C223.787 39.8527 223.55 40.5586 223.29 40.9878C223.074 41.3423 222.146 41.7155 222.113 42.0296C222.059 42.7324 223.755 43.429 224.057 44.0976C224.133 44.2593 224.09 44.3713 224.046 44.4864C224.003 44.6139 223.96 44.7414 224.079 44.9311C224.576 45.7365 226.93 46.346 228.269 47.0209C228.183 47.024 228.28 47.1297 228.366 47.2324C228.463 47.3381 228.55 47.4438 228.463 47.4438C227.005 47.4532 228.355 48.0378 228.485 48.2679C228.712 48.7002 228.463 49.1885 228.463 49.6332C228.463 50.479 228.431 51.328 228.463 52.177C228.463 52.432 228.615 52.7274 228.409 52.9793C228.258 53.1504 227.675 53.2965 227.675 53.4862C227.664 53.8625 228.917 54.3974 229.36 54.755C230.148 55.405 230.774 56.1607 230.126 56.8231C229.36 57.5913 227.038 58.5273 225.386 59.1368C224.273 59.5473 223.247 59.9454 222.189 60.3652C221.541 60.6296 220.407 60.838 220.267 61.1241C220.007 61.6807 221.509 62.3307 221.876 62.8687C222.578 63.926 222.07 65.1451 221.995 66.218C221.973 66.6907 222.286 67.1229 222.599 67.5521C222.999 68.0901 223.398 68.6219 223.118 69.2162C222.859 69.7638 222.178 70.4747 222.956 71.0137C224.133 71.8396 229.306 72.5331 229.122 73.4782C229.047 73.8626 228.431 74.4236 227.113 74.5738C227.135 74.9712 227.772 75.3556 227.751 75.7885C227.74 76.102 227.751 76.4201 227.751 76.7336C227.751 77.3521 227.038 78.3678 227.848 78.9201C228.118 79.1055 229.543 79.5912 230.062 79.7502C230.839 79.9933 231.865 80.0198 232.783 80.1964C233.841 80.4085 234.133 80.6735 234.705 80.9916C235.364 81.3449 236.282 81.6363 237.06 81.9721C238.215 82.4623 239.122 82.9791 239.9 83.5311C240.721 84.1142 241.941 84.6531 242.675 85.2362C243.658 85.9916 242.287 86.8925 241.725 87.6479C241.325 88.1778 240.613 88.4782 239.533 88.9065C238.442 89.3437 238.464 89.6043 238.485 90.1566C238.507 90.5099 238.841 91.0268 238.388 91.3667C237.848 91.7514 235.861 91.9632 235.667 92.4004C235.418 92.948 238.82 93.5887 240.083 93.9065C241.768 94.335 244.047 94.6926 245.019 95.2891C245.98 95.8853 245.732 96.6052 245.494 97.2368C245.105 98.2086 245.159 99.1979 244.392 100.152C244.198 100.413 243.809 100.642 243.593 100.894C243.042 101.543 242.762 102.259 242.092 102.877C241.811 103.133 241.531 103.239 241.347 103.518C241.055 103.929 241.358 104.419 241.358 104.839C241.358 105.845 241.379 106.857 241.358 107.864C241.347 108.517 241.531 109.264 242.481 109.838C243.366 110.368 244.5 110.823 244.263 111.45C244.058 111.936 243.496 112.338 243.485 112.833C243.485 113.124 243.496 113.411 243.496 113.703C243.496 114.286 243.453 114.763 242.988 115.328C241.963 116.53 242.438 117.992 239.565 119.003C238.507 119.383 236.941 119.701 236.153 120.134C235.332 120.584 235.418 121.131 235.494 121.676C235.548 122.093 235.613 122.51 235.267 122.881C234.295 123.937 236.617 125.019 238.021 125.995C238.582 126.384 239.641 126.808 239.23 127.254C239.047 127.462 238.442 127.524 238.399 127.757C238.334 128.084 239.63 128.239 240.159 128.495C240.872 128.84 240.645 129.162 240.634 129.556C240.602 130.96 240.483 132.135 238.464 133.402C237.697 133.883 238.183 134.348 238.658 134.829C238.96 135.131 239.274 135.439 239.263 135.761C239.252 136.141 238.636 136.441 238.474 136.821C238.075 137.731 238.485 138.619 237.772 139.538C237.308 140.156 236.314 140.651 235.472 141.221C234.165 142.104 235.04 143.084 233.042 143.804C232.081 144.149 230.99 144.52 230.915 144.988C230.839 145.496 231.93 145.977 232.081 146.477C232.157 146.759 232.049 147.06 232.049 147.346C232.049 147.519 232.07 147.702 232.103 147.891C232.189 148.535 232.276 149.237 231.185 149.767C230.45 150.125 229.576 150.341 228.982 150.739C228.561 151.035 228.085 151.326 227.891 151.644C227.718 151.899 227.783 152.178 227.848 152.457C227.923 152.783 227.999 153.108 227.707 153.393C227.448 153.645 226.519 154.034 225.99 154.272C225.008 154.71 223.863 155.195 222.707 155.597C222.211 155.774 221.357 155.938 221.066 156.163C220.688 156.445 220.947 156.406 221.217 156.746C221.617 157.232 221.552 158.031 221.163 158.535C220.709 159.1 219.511 159.484 217.696 159.705C216.465 159.851 216.487 159.719 215.893 160.089C215.364 160.421 215.526 160.862 215.569 161.22C215.666 161.869 217.092 162.497 216.843 163.141C216.757 163.393 216.12 163.468 216.39 163.733C216.606 163.946 218.398 164.33 218.874 164.453C220.245 164.807 222.405 165.677 224.165 165.792C222.664 166.123 223.226 167.439 224.079 167.819C224.932 168.203 226.217 168.459 226.919 168.883C227.491 169.219 227.826 169.595 228.409 169.934C229.846 170.783 231.336 171.494 230.45 172.466C230.094 172.863 229.792 172.779 230.407 173.133C230.958 173.45 231.941 173.667 232.783 173.919C234.857 174.542 234.252 175.16 233.474 175.968C232.977 176.48 232.297 176.975 231.865 177.501C231.52 177.916 231.412 178.384 230.688 178.751C229.792 179.206 228.939 179.484 228.258 179.979C227.589 180.451 226.854 181.441 225.062 181.653C227.286 182.488 230.126 183.018 229.91 184.139C229.77 184.868 228.604 185.433 226.973 186.021C227.416 186.441 229.954 186.454 231.174 186.661C232.653 186.918 234.068 187.333 235.31 187.686C237.848 188.415 238.777 189.02 239.155 190.058C239.23 190.271 239.209 190.483 239.187 190.695C239.176 190.867 239.155 191.039 239.187 191.211C239.284 191.666 240.019 192.086 240.602 192.509C241.574 193.216 242.783 193.561 242.805 194.36C242.816 194.744 242.783 195.014 243.323 195.376C245.051 196.577 246.693 198.017 245.699 199.342C245.494 199.638 244.727 199.846 244.392 200.137C243.971 200.504 243.831 200.968 243.485 201.335C243.107 201.736 242.848 202.174 242.276 202.514C240.267 203.68 240.947 205.093 239.587 206.33C238.874 206.957 238.777 207.178 239.554 207.871C239.9 208.176 240.278 208.64 240.764 208.918C241.466 209.325 242.481 209.559 242.999 210.018C243.485 210.451 243.744 210.919 243.55 211.378C243.334 211.842 242.589 212.271 242.243 212.721C242.092 212.908 242.114 213.085 242.146 213.263C242.168 213.409 242.189 213.555 242.114 213.706C241.736 214.527 237.924 215.027 240.051 215.787C241.379 216.263 243.345 216.445 244.295 217.032C244.954 217.452 245.354 218.03 244.792 218.476C244.457 218.741 243.593 218.927 243.474 219.285C243.291 219.801 243.518 220.279 243.161 220.804C242.772 221.422 242.675 222.354 241.531 222.911C240.872 223.233 240.31 223.344 239.921 223.741C239.479 224.183 239.76 224.951 239.068 225.345C238.474 225.676 238.129 225.534 237.772 225.998C237.157 226.842 235.375 227.434 234.878 228.304C234.662 228.662 234.846 228.993 234.554 229.36C234.284 229.7 234.068 230.08 233.841 230.384C233.496 230.822 233.474 231.352 233.129 231.833C232.762 232.328 232.319 232.451 231.487 232.871C230.688 233.269 231.142 233.781 230.472 234.161C230.126 234.355 228.971 234.541 228.485 234.744C227.891 234.987 227.448 235.331 226.843 235.561C226.735 235.601 226.174 235.693 226.098 235.738C225.569 236.1 226.25 236.413 226.358 236.855C226.444 237.263 226.185 237.697 225.926 238.13C225.591 238.686 225.256 239.239 225.666 239.726C229.727 239.951 229.586 240.261 231.228 241.312C231.93 241.762 233.528 242.597 233.55 243.109C233.561 243.274 233.431 243.404 233.312 243.53C233.161 243.686 233.01 243.835 233.096 244.032C233.55 245.018 236.185 245.826 236.358 246.855C236.563 247.933 238.69 248.909 236.671 249.964C235.667 250.49 233.766 250.768 232.708 251.272C231.908 251.647 231.746 251.943 230.623 252.261C229.241 252.663 228.507 252.747 228.388 253.37C228.312 253.798 228.334 254.337 228.615 254.748C228.787 254.973 229.273 255.221 229.252 255.45C229.23 255.826 228.42 256.126 228.42 256.51C228.409 257.133 229.619 257.712 230.472 258.268C231.476 258.931 232.038 259.13 231.152 259.717C230.504 260.15 230.774 260.243 231.174 260.808C231.779 261.683 231.152 262.296 229.457 262.985C228.863 263.22 228.723 263.418 228.301 263.67C227.826 263.953 226.995 264.156 226.293 264.359C225.645 264.545 224.273 264.783 223.82 265.079C223.323 265.393 224.122 265.653 224.187 266.015C224.208 266.133 224.176 266.256 224.144 266.38C224.1 266.575 224.057 266.772 224.208 266.952C224.532 267.318 225.547 267.632 226.239 267.946C227.697 268.608 229.997 269.575 229.759 270.371C229.587 270.931 228.679 271.541 228.507 272.142C228.453 272.394 228.485 272.658 228.517 272.923C228.571 273.292 228.625 273.663 228.409 274.01C228.312 274.151 227.945 274.121 227.815 274.253C227.513 274.527 227.74 274.889 227.74 275.181C227.74 275.437 227.718 275.687 227.697 275.934C227.61 276.896 227.535 277.79 229.1 278.688C229.867 279.116 230.591 279.549 231.336 279.977C231.908 280.309 233.323 280.865 233.431 281.227C233.55 281.576 233.323 281.479 232.761 281.744C232.146 282.036 232.146 282.435 232.146 282.839C232.146 283.304 232.146 283.777 231.196 284.098C230.634 284.288 229.543 284.293 228.971 284.5C228.42 284.695 228.204 284.96 227.772 285.185C227.027 285.547 226.692 285.618 226.843 286.064C226.962 286.479 227.027 286.868 227.027 287.292C227.027 287.848 227.373 288.528 226.93 289.076C226.487 289.65 224.9 290.154 223.625 290.591C224.424 290.635 225.807 290.68 226.282 290.467C226.336 290.622 226.671 290.737 227.254 290.807C228.679 291.121 229.792 291.514 230.548 291.987C231.487 292.557 232.491 293.511 232.092 294.169C231.833 294.588 230.926 295.021 230.591 295.454C230.137 296.024 229.889 296.607 229.878 297.194C230.062 297.384 229.867 297.499 229.316 297.535C229.133 297.861 229.803 297.985 229.943 298.312C230.137 298.745 229.057 298.798 228.582 299.142C227.859 299.672 229.478 300.33 229.77 300.847C230.148 301.532 228.582 302.23 228.453 302.892C228.334 303.426 228.528 303.948 228.992 304.403C229.91 305.268 232.232 306.562 231.379 307.459C230.936 307.914 230.429 307.601 231.174 308.148C232.373 309.045 234.932 309.747 236.466 310.591C236.973 310.869 236.692 311.139 237.124 311.381C237.718 311.708 239.738 311.907 240.505 312.269C241.714 312.821 241.12 313.325 240.818 313.939C240.494 314.601 240.785 315.012 241.196 315.608C241.574 316.134 241.541 316.545 242.211 317.088C243.032 317.755 243.744 318.387 244.09 319.089C244.306 319.522 243.939 319.5 243.669 319.818C243.334 320.211 243.474 320.595 243.669 321.001C243.896 321.509 244.716 322.146 244.079 322.649C243.658 322.98 242.88 323.06 242.773 323.515C242.578 324.31 241.466 324.999 241.315 325.816C241.293 325.955 241.304 326.076 241.315 326.186C241.347 326.491 241.369 326.717 240.656 327.022C239.813 327.384 239.295 327.353 239.176 327.923C238.993 328.718 239.705 329.782 236.595 330.219C237.513 331.257 239.252 332.207 239.997 333.285C240.407 333.872 241.379 334.893 240.58 335.493C240.008 335.931 239.381 336.116 239.198 336.686C239.047 337.189 239.036 337.808 238.334 338.28C237.74 338.682 237.308 338.386 237.762 338.943C238.032 339.292 238.291 339.574 238.323 339.928C238.323 340.019 238.302 340.099 238.269 340.177C238.215 340.336 238.161 340.483 238.388 340.688C238.744 341.032 243.194 343.157 238.615 343.143C238.388 343.669 238.15 344.256 236.498 344.552C237.686 345.14 240.677 345.316 242.06 345.944C242.762 346.263 242.74 346.422 242.719 346.659C242.708 346.77 242.697 346.897 242.762 347.065C242.88 347.428 243.366 347.732 243.518 348.081C243.755 348.616 243.496 349.208 243.496 349.747C243.496 350.1 243.42 350.462 243.485 350.82C243.572 351.306 244.166 351.756 244.274 352.255C244.392 352.847 244.274 353.439 243.734 354H190L190 9.53754e-07Z" fill="#626262"/>
</g>
<g filter="url(#filter1_d_381_260)">
<path d="M53 -33H5.87553C5.87553 -32.8943 5.89717 -32.7886 5.91877 -32.6828C6.19955 -31.7468 6.0268 -30.7796 6.50197 -29.7813C6.66396 -29.4112 6.53431 -29.0443 6.81509 -28.6897C6.96628 -28.5 7.66828 -28.2357 7.77627 -28.0709C8.03546 -27.6666 7.20389 -27.4085 6.62072 -26.9763C5.97276 -26.4942 5.68116 -25.8629 5.41118 -25.356C5.30318 -25.1476 5.30316 -25.0637 5.49755 -24.8522C5.95112 -24.3919 7.03114 -23.9783 7.47391 -23.487C8.03548 -22.8557 8.18659 -22.184 9.49331 -21.6273L9.52579 -21.6148C10.3249 -21.279 11.5561 -21.0893 12.2256 -20.7223C13.1544 -20.2216 13.6079 -19.8174 15.2602 -19.4224C16.3617 -19.1643 17.6901 -18.987 18.8456 -18.7383C19.9903 -18.4926 22.9278 -17.9359 23.133 -17.4943C23.187 -17.3575 21.2214 -16.6329 20.9298 -16.4867C19.0292 -15.5133 17.3552 -14.4311 16.0485 -13.3768C14.5366 -12.136 15.3898 -11.2217 16.7181 -10.012C17.3337 -9.46468 17.7873 -8.86138 17.2797 -8.28917C16.7073 -7.62988 15.4113 -7.09497 16.0809 -6.37659C17.0204 -5.36589 20.0767 -4.85587 20.8111 -3.86693C21.2755 -3.22631 21.2646 -2.3649 22.3985 -1.78647C22.8413 -1.56567 23.5865 -1.45991 24.0509 -1.21734C25.2712 -0.573603 25.12 0.393551 25.2712 1.09327C25.39 1.61261 26.0595 1.65925 26.9235 2.09152C29.1913 3.21417 23.9753 4.76908 21.621 5.50611C20.7031 5.79533 19.7851 6.05344 19.5259 6.42041C19.2128 6.85267 19.4504 7.55863 19.7095 7.98778C19.9255 8.34231 20.8542 8.71549 20.8866 9.02959C20.9406 9.73241 19.2451 10.429 18.9427 11.0976C18.8671 11.2593 18.9104 11.3713 18.9536 11.4864C18.9968 11.6139 19.04 11.7414 18.9212 11.9311C18.4244 12.7365 16.0701 13.346 14.731 14.0209C14.8174 14.024 14.7202 14.1297 14.6339 14.2324C14.5367 14.3381 14.4502 14.4438 14.5366 14.4438C15.9945 14.4532 14.6446 15.0378 14.515 15.2679C14.2882 15.7002 14.5366 16.1885 14.5366 16.6332C14.5366 17.479 14.569 18.328 14.5366 19.177C14.5366 19.432 14.3854 19.7274 14.5906 19.9793C14.7418 20.1504 15.3249 20.2965 15.3249 20.4862C15.3357 20.8625 14.0831 21.3974 13.6403 21.755C12.8519 22.405 12.2256 23.1607 12.8736 23.8231C13.6403 24.5913 15.9621 25.5273 17.6144 26.1368C18.7268 26.5473 19.7528 26.9454 20.8111 27.3652C21.4591 27.6296 22.593 27.838 22.7334 28.1241C22.9925 28.6807 21.4914 29.3307 21.1242 29.8687C20.4223 30.926 20.9299 32.1451 21.0055 33.218C21.0271 33.6907 20.7138 34.1229 20.4006 34.5521C20.0011 35.0901 19.6015 35.6219 19.8823 36.2162C20.1415 36.7638 20.8218 37.4747 20.0443 38.0137C18.8672 38.8396 13.6943 39.5331 13.8779 40.4782C13.9535 40.8626 14.569 41.4236 15.8865 41.5738C15.8649 41.9712 15.2278 42.3556 15.2494 42.7885C15.2602 43.102 15.2494 43.4201 15.2494 43.7336C15.2494 44.3521 15.9622 45.3678 15.1522 45.9201C14.8822 46.1055 13.4567 46.5912 12.9383 46.7502C12.1608 46.9933 11.1348 47.0198 10.2169 47.1964C9.15855 47.4085 8.86699 47.6735 8.29462 47.9916C7.63586 48.3449 6.71794 48.6363 5.94039 48.9721C4.78486 49.4623 3.87774 49.9791 3.10018 50.5311C2.27943 51.1142 1.05909 51.6531 0.324732 52.2362C-0.658008 52.9916 0.713487 53.8925 1.27505 54.6479C1.67463 55.1778 2.38736 55.4782 3.4673 55.9065C4.55803 56.3437 4.53645 56.6043 4.51485 57.1566C4.49325 57.5099 4.15852 58.0268 4.61209 58.3667C5.15206 58.7514 7.13905 58.9632 7.33344 59.4004C7.58182 59.948 4.1801 60.5887 2.91657 60.9065C1.23188 61.335 -1.04681 61.6926 -2.01875 62.2891C-2.97989 62.8853 -2.73154 63.6052 -2.49396 64.2368C-2.10518 65.2086 -2.15916 66.1979 -1.39241 67.152C-1.19802 67.4126 -0.809199 67.6424 -0.593212 67.894C-0.0424457 68.5433 0.238274 69.2589 0.907833 69.8774C1.18862 70.1334 1.46944 70.2394 1.65303 70.5178C1.94461 70.9286 1.64227 71.4187 1.64227 71.8385C1.64227 72.8452 1.62067 73.8568 1.64227 74.8638C1.65307 75.5175 1.46944 76.2641 0.519099 76.8382C-0.366447 77.3684 -1.50038 77.8231 -1.26279 78.4504C-1.0576 78.9361 -0.496018 79.3382 -0.485218 79.833C-0.485218 80.1244 -0.496081 80.4114 -0.496081 80.7031C-0.496081 81.2862 -0.452863 81.763 0.0115089 82.3283C1.03745 83.53 0.562296 84.9919 3.43492 86.0032C4.49326 86.3832 6.05912 86.7014 6.84747 87.134C7.66822 87.5843 7.58189 88.1307 7.50629 88.6755C7.45229 89.0932 7.38746 89.5096 7.73304 89.8812C8.70498 90.937 6.38312 92.0192 4.9792 92.9954C4.41764 93.3838 3.35928 93.808 3.76966 94.2543C3.95325 94.4617 4.55803 94.5236 4.60123 94.7575C4.66602 95.0843 3.37012 95.2392 2.84096 95.4951C2.1282 95.8397 2.35494 96.1622 2.36574 96.5556C2.39814 97.96 2.517 99.1349 4.53647 100.402C5.30323 100.883 4.81728 101.348 4.34211 101.829C4.03972 102.131 3.72648 102.439 3.73728 102.761C3.74808 103.141 4.36362 103.441 4.52561 103.821C4.92519 104.731 4.51481 105.619 5.22757 106.538C5.69194 107.156 6.68556 107.651 7.52791 108.221C8.83463 109.104 7.95988 110.084 9.95776 110.804C10.9189 111.149 12.0096 111.52 12.0851 111.988C12.1607 112.496 11.07 112.977 10.9188 113.477C10.8432 113.759 10.9512 114.06 10.9512 114.346C10.9512 114.519 10.9296 114.702 10.8972 114.891C10.8108 115.535 10.7244 116.237 11.8152 116.767C12.5495 117.125 13.4243 117.341 14.0183 117.739C14.4394 118.035 14.9146 118.326 15.109 118.644C15.2818 118.899 15.217 119.178 15.1522 119.457C15.0766 119.783 15.001 120.108 15.2926 120.393C15.5518 120.645 16.4805 121.034 17.0097 121.272C17.9924 121.71 19.1371 122.195 20.2926 122.597C20.7894 122.774 21.6426 122.938 21.9342 123.163C22.3121 123.445 22.053 123.406 21.783 123.746C21.3835 124.232 21.4483 125.031 21.837 125.535C22.2906 126.1 23.4893 126.484 25.3036 126.705C26.5347 126.851 26.5131 126.719 27.1071 127.089C27.6363 127.421 27.4743 127.862 27.4311 128.22C27.3339 128.869 25.9084 129.497 26.1568 130.141C26.2432 130.393 26.8802 130.468 26.6103 130.733C26.3943 130.946 24.6016 131.33 24.1264 131.453C22.7549 131.807 20.595 132.677 18.8347 132.792C20.3358 133.123 19.7744 134.439 18.9212 134.819C18.0681 135.203 16.7829 135.459 16.0809 135.883C15.5085 136.219 15.1738 136.595 14.5906 136.934C13.1543 137.783 11.6641 138.494 12.5496 139.466C12.906 139.863 13.2083 139.779 12.5927 140.133C12.042 140.45 11.0592 140.667 10.2169 140.919C8.14341 141.542 8.74824 142.16 9.52579 142.968C10.0226 143.48 10.7029 143.975 11.1348 144.501C11.4804 144.916 11.5884 145.384 12.312 145.751C13.2083 146.206 14.0615 146.484 14.7418 146.979C15.4114 147.451 16.1457 148.441 17.9384 148.653C15.7137 149.488 12.8736 150.018 13.0896 151.139C13.23 151.868 14.3962 152.433 16.0269 153.021C15.5841 153.441 13.0464 153.454 11.826 153.661C10.3465 153.918 8.93182 154.333 7.6899 154.686C5.15206 155.415 4.22325 156.02 3.84527 157.058C3.76968 157.271 3.7913 157.483 3.8129 157.695C3.8237 157.867 3.84529 158.039 3.8129 158.211C3.7157 158.666 2.98139 159.086 2.39823 159.509C1.42629 160.216 0.216717 160.561 0.195119 161.36C0.184319 161.744 0.216739 162.014 -0.323228 162.376C-2.05112 163.577 -3.69262 165.017 -2.69908 166.342C-2.4939 166.638 -1.72718 166.846 -1.39241 167.137C-0.971231 167.504 -0.830797 167.968 -0.485218 168.335C-0.107242 168.736 0.151964 169.174 0.724329 169.514C2.73301 170.68 2.05258 172.093 3.4133 173.33C4.12606 173.957 4.22323 174.178 3.44568 174.871C3.1001 175.176 2.72221 175.64 2.23624 175.918C1.53428 176.325 0.51912 176.559 0.000751773 177.018C-0.485218 177.451 -0.744466 177.919 -0.550078 178.378C-0.334091 178.842 0.411126 179.271 0.756705 179.721C0.907896 179.908 0.886234 180.085 0.853836 180.263C0.832237 180.409 0.810723 180.555 0.886319 180.706C1.2643 181.527 5.07642 182.027 2.94895 182.787C1.62063 183.263 -0.344827 183.445 -1.29517 184.032C-1.95393 184.452 -2.35357 185.03 -1.792 185.476C-1.45722 185.741 -0.593254 185.927 -0.474461 186.285C-0.290872 186.801 -0.517616 187.279 -0.161238 187.804C0.227538 188.422 0.32469 189.354 1.46942 189.911C2.12818 190.233 2.68979 190.344 3.07856 190.741C3.52134 191.183 3.24049 191.951 3.93165 192.345C4.52561 192.676 4.87119 192.534 5.22757 192.998C5.84313 193.842 7.62511 194.434 8.12187 195.304C8.33786 195.662 8.15427 195.993 8.44586 196.36C8.71584 196.7 8.93178 197.08 9.15857 197.384C9.50415 197.822 9.5257 198.352 9.87128 198.833C10.2385 199.328 10.6813 199.451 11.5128 199.871C12.312 200.269 11.8584 200.781 12.528 201.161C12.8736 201.355 14.029 201.541 14.515 201.744C15.109 201.987 15.5518 202.331 16.1565 202.561C16.2645 202.601 16.8261 202.693 16.9017 202.738C17.4309 203.1 16.7505 203.413 16.6425 203.855C16.5561 204.263 16.8153 204.697 17.0745 205.13C17.4092 205.686 17.7441 206.239 17.3337 206.726C13.2731 206.951 13.4135 207.261 11.772 208.312C11.0701 208.762 9.47177 209.597 9.45017 210.109C9.43937 210.274 9.56899 210.404 9.68778 210.53C9.83897 210.686 9.99016 210.835 9.90377 211.032C9.45019 212.018 6.81513 212.826 6.64234 213.855C6.43716 214.933 4.30965 215.909 6.32912 216.964C7.33346 217.49 9.23416 217.768 10.2925 218.272C11.0917 218.647 11.2536 218.943 12.3768 219.261C13.7591 219.663 14.4934 219.747 14.6122 220.37C14.6878 220.798 14.6663 221.337 14.3855 221.748C14.2127 221.973 13.7267 222.221 13.7483 222.45C13.7699 222.826 14.5799 223.126 14.5799 223.51C14.5907 224.133 13.3811 224.712 12.528 225.268C11.5236 225.931 10.9621 226.13 11.8476 226.717C12.4956 227.15 12.2256 227.243 11.826 227.808C11.2213 228.683 11.8476 229.296 13.5431 229.985C14.137 230.22 14.2774 230.418 14.6986 230.67C15.1738 230.953 16.0054 231.156 16.7073 231.359C17.3553 231.545 18.7268 231.783 19.1803 232.079C19.6771 232.393 18.878 232.653 18.8132 233.015C18.7916 233.133 18.824 233.256 18.8564 233.38C18.8996 233.575 18.9428 233.772 18.7916 233.952C18.4676 234.318 17.4525 234.632 16.7613 234.946C15.3034 235.608 13.0031 236.575 13.2407 237.371C13.4135 237.931 14.3207 238.541 14.4935 239.142C14.5475 239.394 14.515 239.658 14.4826 239.923C14.4286 240.292 14.3746 240.663 14.5906 241.01C14.6878 241.151 15.055 241.121 15.1846 241.253C15.487 241.527 15.2602 241.889 15.2602 242.181C15.2602 242.437 15.2818 242.687 15.3034 242.934C15.3898 243.896 15.4654 244.79 13.8995 245.688C13.1328 246.116 12.4092 246.549 11.664 246.977C11.0917 247.309 9.67692 247.865 9.56892 248.227C9.45013 248.576 9.67694 248.479 10.2385 248.744C10.8541 249.036 10.8541 249.435 10.8541 249.839C10.8541 250.304 10.8541 250.777 11.8044 251.098C12.366 251.288 13.4567 251.293 14.029 251.5C14.5798 251.695 14.7958 251.96 15.2278 252.185C15.973 252.547 16.3077 252.618 16.1565 253.064C16.0377 253.479 15.9729 253.868 15.9729 254.292C15.9729 254.848 15.6274 255.528 16.0701 256.076C16.5129 256.65 18.1004 257.154 19.3747 257.591C18.5755 257.635 17.1933 257.68 16.7181 257.467C16.6641 257.622 16.3293 257.737 15.7462 257.807C14.3207 258.121 13.2083 258.514 12.4524 258.987C11.5128 259.557 10.5085 260.511 10.9081 261.169C11.1673 261.588 12.0743 262.021 12.4091 262.454C12.8627 263.024 13.1111 263.607 13.1219 264.194C12.9384 264.384 13.1328 264.499 13.6835 264.535C13.8671 264.861 13.1975 264.985 13.0571 265.312C12.8627 265.745 13.9427 265.798 14.4179 266.142C15.1414 266.672 13.5215 267.33 13.2299 267.847C12.852 268.532 14.4179 269.23 14.5475 269.892C14.6663 270.426 14.4719 270.948 14.0075 271.403C13.0896 272.268 10.7676 273.562 11.6208 274.459C12.0636 274.914 12.5712 274.601 11.826 275.148C10.6273 276.045 8.06786 276.747 6.53435 277.591C6.02678 277.869 6.3075 278.139 5.87553 278.381C5.28156 278.708 3.26211 278.907 2.49536 279.269C1.28583 279.821 1.87986 280.325 2.18224 280.939C2.50622 281.601 2.21464 282.012 1.80426 282.608C1.42629 283.134 1.45864 283.545 0.789082 284.088C-0.0316674 284.755 -0.744466 285.387 -1.09004 286.089C-1.30603 286.522 -0.938812 286.5 -0.668828 286.818C-0.334049 287.211 -0.47444 287.595 -0.668828 288.001C-0.895614 288.509 -1.71634 289.146 -1.07918 289.649C-0.658008 289.98 0.119502 290.06 0.227496 290.515C0.421884 291.31 1.53422 291.999 1.68541 292.816C1.70701 292.955 1.69621 293.076 1.68541 293.186C1.65301 293.491 1.63147 293.717 2.34423 294.022C3.18658 294.384 3.70486 294.353 3.82365 294.923C4.00724 295.718 3.29453 296.782 6.40474 297.219C5.48679 298.257 3.7481 299.207 3.00295 300.285C2.59257 300.872 1.62059 301.893 2.41974 302.493C2.9921 302.931 3.61855 303.116 3.80214 303.686C3.95333 304.189 3.96413 304.808 4.66609 305.28C5.26005 305.682 5.692 305.386 5.23843 305.943C4.96845 306.292 4.70924 306.574 4.67684 306.928C4.67684 307.019 4.69844 307.099 4.73084 307.177C4.78484 307.336 4.83888 307.483 4.61209 307.688C4.25571 308.032 -0.193679 310.157 4.38524 310.143C4.61203 310.669 4.84967 311.256 6.50197 311.552C5.31405 312.14 2.32263 312.316 0.940315 312.944C0.238358 313.263 0.259894 313.422 0.281492 313.659C0.292292 313.77 0.303154 313.897 0.238358 314.065C0.119565 314.428 -0.366405 314.732 -0.517595 315.081C-0.755181 315.616 -0.496081 316.208 -0.496081 316.747C-0.496081 317.1 -0.420422 317.462 -0.485218 317.82C-0.571613 318.306 -1.16556 318.756 -1.27355 319.255C-1.39234 319.847 -1.27355 320.439 -0.733582 321H53L53 -33Z" fill="#626262"/>
</g>
<rect x="53" width="137" height="52" fill="#626262"/>
</g>
<defs>
<filter id="filter0_d_381_260" x="188" y="-3" width="60" height="358" filterUnits="userSpaceOnUse" color-interpolation-filters="sRGB">
<feFlood flood-opacity="0" result="BackgroundImageFix"/>
<feColorMatrix in="SourceAlpha" type="matrix" values="0 0 0 0 0 0 0 0 0 0 0 0 0 0 0 0 0 0 127 0" result="hardAlpha"/>
<feOffset dy="-1"/>
<feGaussianBlur stdDeviation="1"/>
<feComposite in2="hardAlpha" operator="out"/>
<feColorMatrix type="matrix" values="0 0 0 0 0 0 0 0 0 0 0 0 0 0 0 0 0 0 0.25 0"/>
<feBlend mode="normal" in2="BackgroundImageFix" result="effect1_dropShadow_381_260"/>
<feBlend mode="normal" in="SourceGraphic" in2="effect1_dropShadow_381_260" result="shape"/>
</filter>
<filter id="filter1_d_381_260" x="-5" y="-36" width="60" height="358" filterUnits="userSpaceOnUse" color-interpolation-filters="sRGB">
<feFlood flood-opacity="0" result="BackgroundImageFix"/>
<feColorMatrix in="SourceAlpha" type="matrix" values="0 0 0 0 0 0 0 0 0 0 0 0 0 0 0 0 0 0 127 0" result="hardAlpha"/>
<feOffset dy="-1"/>
<feGaussianBlur stdDeviation="1"/>
<feComposite in2="hardAlpha" operator="out"/>
<feColorMatrix type="matrix" values="0 0 0 0 0 0 0 0 0 0 0 0 0 0 0 0 0 0 0.25 0"/>
<feBlend mode="normal" in2="BackgroundImageFix" result="effect1_dropShadow_381_260"/>
<feBlend mode="normal" in="SourceGraphic" in2="effect1_dropShadow_381_260" result="shape"/>
</filter>
<clipPath id="clip0_381_260">
<rect width="239" height="52" fill="white"/>
</clipPath>
</defs>
</svg>
