<svg width="215" height="39" viewBox="0 0 215 39" fill="none" xmlns="http://www.w3.org/2000/svg">
<g clip-path="url(#clip0_304_634)">
<g filter="url(#filter0_d_304_634)">
<path d="M167 -7H214.124C214.124 -6.89426 214.103 -6.78856 214.081 -6.68282C213.8 -5.74676 213.973 -4.77957 213.498 -3.78131C213.336 -3.41124 213.466 -3.04427 213.185 -2.68975C213.034 -2.50005 212.332 -2.23571 212.224 -2.07089C211.965 -1.66661 212.796 -1.40852 213.379 -0.976254C214.027 -0.494228 214.319 0.137089 214.589 0.643994C214.697 0.852353 214.697 0.936326 214.502 1.1478C214.049 1.60805 212.969 2.02166 212.526 2.51302C211.965 3.14432 211.813 3.81603 210.507 4.37269L210.474 4.38515C209.675 4.72101 208.444 4.9107 207.774 5.27767C206.846 5.77835 206.392 6.18265 204.74 6.5776C203.638 6.83572 202.31 7.01296 201.154 7.26175C200.01 7.50742 197.072 8.06411 196.867 8.5057C196.813 8.64254 198.779 9.36715 199.07 9.51331C200.971 10.4867 202.645 11.5689 203.951 12.6232C205.463 13.864 204.61 14.7783 203.282 15.988C202.666 16.5353 202.213 17.1386 202.72 17.7108C203.293 18.3701 204.589 18.905 203.919 19.6234C202.98 20.6341 199.923 21.1441 199.189 22.1331C198.725 22.7737 198.735 23.6351 197.601 24.2135C197.159 24.4343 196.413 24.5401 195.949 24.7827C194.729 25.4264 194.88 26.3936 194.729 27.0933C194.61 27.6126 193.94 27.6592 193.077 28.0915C190.809 29.2142 196.025 30.7691 198.379 31.5061C199.297 31.7953 200.215 32.0534 200.474 32.4204C200.787 32.8527 200.55 33.5586 200.29 33.9878C200.074 34.3423 199.146 34.7155 199.113 35.0296C199.059 35.7324 200.755 36.429 201.057 37.0976C201.133 37.2593 201.09 37.3713 201.046 37.4864C201.003 37.6139 200.96 37.7414 201.079 37.9311C201.576 38.7365 203.93 39.346 205.269 40.0209C205.183 40.024 205.28 40.1297 205.366 40.2324C205.463 40.3381 205.55 40.4438 205.463 40.4438C204.005 40.4532 205.355 41.0378 205.485 41.2679C205.712 41.7002 205.463 42.1885 205.463 42.6332C205.463 43.479 205.431 44.328 205.463 45.177C205.463 45.432 205.615 45.7274 205.409 45.9793C205.258 46.1504 204.675 46.2965 204.675 46.4862C204.664 46.8625 205.917 47.3974 206.36 47.755C207.148 48.405 207.774 49.1607 207.126 49.8231C206.36 50.5913 204.038 51.5273 202.386 52.1368C201.273 52.5473 200.247 52.9454 199.189 53.3652C198.541 53.6296 197.407 53.838 197.267 54.1241C197.007 54.6807 198.509 55.3307 198.876 55.8687C199.578 56.926 199.07 58.1451 198.995 59.218C198.973 59.6907 199.286 60.1229 199.599 60.5521C199.999 61.0901 200.398 61.6219 200.118 62.2162C199.859 62.7638 199.178 63.4747 199.956 64.0137C201.133 64.8396 206.306 65.5331 206.122 66.4782C206.047 66.8626 205.431 67.4236 204.113 67.5738C204.135 67.9712 204.772 68.3556 204.751 68.7885C204.74 69.102 204.751 69.4201 204.751 69.7336C204.751 70.3521 204.038 71.3678 204.848 71.9201C205.118 72.1055 206.543 72.5912 207.062 72.7502C207.839 72.9933 208.865 73.0198 209.783 73.1964C210.841 73.4085 211.133 73.6735 211.705 73.9916C212.364 74.3449 213.282 74.6363 214.06 74.9721C215.215 75.4623 216.122 75.9791 216.9 76.5311C217.721 77.1142 218.941 77.6531 219.675 78.2362C220.658 78.9916 219.287 79.8925 218.725 80.6479C218.325 81.1778 217.613 81.4782 216.533 81.9065C215.442 82.3437 215.464 82.6043 215.485 83.1566C215.507 83.5099 215.841 84.0268 215.388 84.3667C214.848 84.7514 212.861 84.9632 212.667 85.4004C212.418 85.948 215.82 86.5887 217.083 86.9065C218.768 87.335 221.047 87.6926 222.019 88.2891C222.98 88.8853 222.732 89.6052 222.494 90.2368C222.105 91.2086 222.159 92.1979 221.392 93.152C221.198 93.4126 220.809 93.6424 220.593 93.894C220.042 94.5433 219.762 95.2589 219.092 95.8774C218.811 96.1334 218.531 96.2394 218.347 96.5178C218.055 96.9286 218.358 97.4187 218.358 97.8385C218.358 98.8452 218.379 99.8568 218.358 100.864C218.347 101.517 218.531 102.264 219.481 102.838C220.366 103.368 221.5 103.823 221.263 104.45C221.058 104.936 220.496 105.338 220.485 105.833C220.485 106.124 220.496 106.411 220.496 106.703C220.496 107.286 220.453 107.763 219.988 108.328C218.963 109.53 219.438 110.992 216.565 112.003C215.507 112.383 213.941 112.701 213.153 113.134C212.332 113.584 212.418 114.131 212.494 114.676C212.548 115.093 212.613 115.51 212.267 115.881C211.295 116.937 213.617 118.019 215.021 118.995C215.582 119.384 216.641 119.808 216.23 120.254C216.047 120.462 215.442 120.524 215.399 120.757C215.334 121.084 216.63 121.239 217.159 121.495C217.872 121.84 217.645 122.162 217.634 122.556C217.602 123.96 217.483 125.135 215.464 126.402C214.697 126.883 215.183 127.348 215.658 127.829C215.96 128.131 216.274 128.439 216.263 128.761C216.252 129.141 215.636 129.441 215.474 129.821C215.075 130.731 215.485 131.619 214.772 132.538C214.308 133.156 213.314 133.651 212.472 134.221C211.165 135.104 212.04 136.084 210.042 136.804C209.081 137.149 207.99 137.52 207.915 137.988C207.839 138.496 208.93 138.977 209.081 139.477C209.157 139.759 209.049 140.06 209.049 140.346C209.049 140.519 209.07 140.702 209.103 140.891C209.189 141.535 209.276 142.237 208.185 142.767C207.45 143.125 206.576 143.341 205.982 143.739C205.561 144.035 205.085 144.326 204.891 144.644C204.718 144.899 204.783 145.178 204.848 145.457C204.923 145.783 204.999 146.108 204.707 146.393C204.448 146.645 203.519 147.034 202.99 147.272C202.008 147.71 200.863 148.195 199.707 148.597C199.211 148.774 198.357 148.938 198.066 149.163C197.688 149.445 197.947 149.406 198.217 149.746C198.617 150.232 198.552 151.031 198.163 151.535C197.709 152.1 196.511 152.484 194.696 152.705C193.465 152.851 193.487 152.719 192.893 153.089C192.364 153.421 192.526 153.862 192.569 154.22C192.666 154.869 194.092 155.497 193.843 156.141C193.757 156.393 193.12 156.468 193.39 156.733C193.606 156.946 195.398 157.33 195.874 157.453C197.245 157.807 199.405 158.677 201.165 158.792C199.664 159.123 200.226 160.439 201.079 160.819C201.932 161.203 203.217 161.459 203.919 161.883C204.491 162.219 204.826 162.595 205.409 162.934C206.846 163.783 208.336 164.494 207.45 165.466C207.094 165.863 206.792 165.779 207.407 166.133C207.958 166.45 208.941 166.667 209.783 166.919C211.857 167.542 211.252 168.16 210.474 168.968C209.977 169.48 209.297 169.975 208.865 170.501C208.52 170.916 208.412 171.384 207.688 171.751C206.792 172.206 205.939 172.484 205.258 172.979C204.589 173.451 203.854 174.441 202.062 174.653C204.286 175.488 207.126 176.018 206.91 177.139C206.77 177.868 205.604 178.433 203.973 179.021C204.416 179.441 206.954 179.454 208.174 179.661C209.653 179.918 211.068 180.333 212.31 180.686C214.848 181.415 215.777 182.02 216.155 183.058C216.23 183.271 216.209 183.483 216.187 183.695C216.176 183.867 216.155 184.039 216.187 184.211C216.284 184.666 217.019 185.086 217.602 185.509C218.574 186.216 219.783 186.561 219.805 187.36C219.816 187.744 219.783 188.014 220.323 188.376C222.051 189.577 223.693 191.017 222.699 192.342C222.494 192.638 221.727 192.846 221.392 193.137C220.971 193.504 220.831 193.968 220.485 194.335C220.107 194.736 219.848 195.174 219.276 195.514C217.267 196.68 217.947 198.093 216.587 199.33C215.874 199.957 215.777 200.178 216.554 200.871C216.9 201.176 217.278 201.64 217.764 201.918C218.466 202.325 219.481 202.559 219.999 203.018C220.485 203.451 220.744 203.919 220.55 204.378C220.334 204.842 219.589 205.271 219.243 205.721C219.092 205.908 219.114 206.085 219.146 206.263C219.168 206.409 219.189 206.555 219.114 206.706C218.736 207.527 214.924 208.027 217.051 208.787C218.379 209.263 220.345 209.445 221.295 210.032C221.954 210.452 222.354 211.03 221.792 211.476C221.457 211.741 220.593 211.927 220.474 212.285C220.291 212.801 220.518 213.279 220.161 213.804C219.772 214.422 219.675 215.354 218.531 215.911C217.872 216.233 217.31 216.344 216.921 216.741C216.479 217.183 216.76 217.951 216.068 218.345C215.474 218.676 215.129 218.534 214.772 218.998C214.157 219.842 212.375 220.434 211.878 221.304C211.662 221.662 211.846 221.993 211.554 222.36C211.284 222.7 211.068 223.08 210.841 223.384C210.496 223.822 210.474 224.352 210.129 224.833C209.762 225.328 209.319 225.451 208.487 225.871C207.688 226.269 208.142 226.781 207.472 227.161C207.126 227.355 205.971 227.541 205.485 227.744C204.891 227.987 204.448 228.331 203.843 228.561C203.735 228.601 203.174 228.693 203.098 228.738C202.569 229.1 203.25 229.413 203.358 229.855C203.444 230.263 203.185 230.697 202.926 231.13C202.591 231.686 202.256 232.239 202.666 232.726C206.727 232.951 206.586 233.261 208.228 234.312C208.93 234.762 210.528 235.597 210.55 236.109C210.561 236.274 210.431 236.404 210.312 236.53C210.161 236.686 210.01 236.835 210.096 237.032C210.55 238.018 213.185 238.826 213.358 239.855C213.563 240.933 215.69 241.909 213.671 242.964C212.667 243.49 210.766 243.768 209.708 244.272C208.908 244.647 208.746 244.943 207.623 245.261C206.241 245.663 205.507 245.747 205.388 246.37C205.312 246.798 205.334 247.337 205.615 247.748C205.787 247.973 206.273 248.221 206.252 248.45C206.23 248.826 205.42 249.126 205.42 249.51C205.409 250.133 206.619 250.712 207.472 251.268C208.476 251.931 209.038 252.13 208.152 252.717C207.504 253.15 207.774 253.243 208.174 253.808C208.779 254.683 208.152 255.296 206.457 255.985C205.863 256.22 205.723 256.418 205.301 256.67C204.826 256.953 203.995 257.156 203.293 257.359C202.645 257.545 201.273 257.783 200.82 258.079C200.323 258.393 201.122 258.653 201.187 259.015C201.208 259.133 201.176 259.256 201.144 259.38C201.1 259.575 201.057 259.772 201.208 259.952C201.532 260.318 202.547 260.632 203.239 260.946C204.697 261.608 206.997 262.575 206.759 263.371C206.587 263.931 205.679 264.541 205.507 265.142C205.453 265.394 205.485 265.658 205.517 265.923C205.571 266.292 205.625 266.663 205.409 267.01C205.312 267.151 204.945 267.121 204.815 267.253C204.513 267.527 204.74 267.889 204.74 268.181C204.74 268.437 204.718 268.687 204.697 268.934C204.61 269.896 204.535 270.79 206.1 271.688C206.867 272.116 207.591 272.549 208.336 272.977C208.908 273.309 210.323 273.865 210.431 274.227C210.55 274.576 210.323 274.479 209.761 274.744C209.146 275.036 209.146 275.435 209.146 275.839C209.146 276.304 209.146 276.777 208.196 277.098C207.634 277.288 206.543 277.293 205.971 277.5C205.42 277.695 205.204 277.96 204.772 278.185C204.027 278.547 203.692 278.618 203.843 279.064C203.962 279.479 204.027 279.868 204.027 280.292C204.027 280.848 204.373 281.528 203.93 282.076C203.487 282.65 201.9 283.154 200.625 283.591C201.424 283.635 202.807 283.68 203.282 283.467C203.336 283.622 203.671 283.737 204.254 283.807C205.679 284.121 206.792 284.514 207.548 284.987C208.487 285.557 209.491 286.511 209.092 287.169C208.833 287.588 207.926 288.021 207.591 288.454C207.137 289.024 206.889 289.607 206.878 290.194C207.062 290.384 206.867 290.499 206.316 290.535C206.133 290.861 206.803 290.985 206.943 291.312C207.137 291.745 206.057 291.798 205.582 292.142C204.859 292.672 206.478 293.33 206.77 293.847C207.148 294.532 205.582 295.23 205.453 295.892C205.334 296.426 205.528 296.948 205.992 297.403C206.91 298.268 209.232 299.562 208.379 300.459C207.936 300.914 207.429 300.601 208.174 301.148C209.373 302.045 211.932 302.747 213.466 303.591C213.973 303.869 213.692 304.139 214.124 304.381C214.718 304.708 216.738 304.907 217.505 305.269C218.714 305.821 218.12 306.325 217.818 306.939C217.494 307.601 217.785 308.012 218.196 308.608C218.574 309.134 218.541 309.545 219.211 310.088C220.032 310.755 220.744 311.387 221.09 312.089C221.306 312.522 220.939 312.5 220.669 312.818C220.334 313.211 220.474 313.595 220.669 314.001C220.896 314.509 221.716 315.146 221.079 315.649C220.658 315.98 219.88 316.06 219.773 316.515C219.578 317.31 218.466 317.999 218.315 318.816C218.293 318.955 218.304 319.076 218.315 319.186C218.347 319.491 218.369 319.717 217.656 320.022C216.813 320.384 216.295 320.353 216.176 320.923C215.993 321.718 216.705 322.782 213.595 323.219C214.513 324.257 216.252 325.207 216.997 326.285C217.407 326.872 218.379 327.893 217.58 328.493C217.008 328.931 216.381 329.116 216.198 329.686C216.047 330.189 216.036 330.808 215.334 331.28C214.74 331.682 214.308 331.386 214.762 331.943C215.032 332.292 215.291 332.574 215.323 332.928C215.323 333.019 215.302 333.099 215.269 333.177C215.215 333.336 215.161 333.483 215.388 333.688C215.744 334.032 220.194 336.157 215.615 336.143C215.388 336.669 215.15 337.256 213.498 337.552C214.686 338.14 217.677 338.316 219.06 338.944C219.762 339.263 219.74 339.422 219.719 339.659C219.708 339.77 219.697 339.897 219.762 340.065C219.88 340.428 220.366 340.732 220.518 341.081C220.755 341.616 220.496 342.208 220.496 342.747C220.496 343.1 220.42 343.462 220.485 343.82C220.572 344.306 221.166 344.756 221.274 345.255C221.392 345.847 221.274 346.439 220.734 347H167L167 -7Z" fill="#EEECE7"/>
</g>
<g filter="url(#filter1_d_304_634)">
<path d="M45 -40H-2.12447C-2.12447 -39.8943 -2.10283 -39.7886 -2.08123 -39.6828C-1.80045 -38.7468 -1.9732 -37.7796 -1.49803 -36.7813C-1.33604 -36.4112 -1.46569 -36.0443 -1.18491 -35.6897C-1.03372 -35.5 -0.331719 -35.2357 -0.223725 -35.0709C0.0354587 -34.6666 -0.796112 -34.4085 -1.37928 -33.9763C-2.02724 -33.4942 -2.31884 -32.8629 -2.58882 -32.356C-2.69682 -32.1476 -2.69684 -32.0637 -2.50245 -31.8522C-2.04888 -31.3919 -0.968859 -30.9783 -0.526086 -30.487C0.0354794 -29.8557 0.186586 -29.184 1.49331 -28.6273L1.52579 -28.6148C2.32494 -28.279 3.55606 -28.0893 4.22562 -27.7223C5.15437 -27.2216 5.6079 -26.8174 7.26019 -26.4224C8.36173 -26.1643 9.69007 -25.987 10.8456 -25.7383C11.9903 -25.4926 14.9278 -24.9359 15.133 -24.4943C15.187 -24.3575 13.2214 -23.6329 12.9298 -23.4867C11.0292 -22.5133 9.35524 -21.4311 8.04852 -20.3768C6.53662 -19.136 7.38979 -18.2217 8.71811 -17.012C9.33367 -16.4647 9.78726 -15.8614 9.27969 -15.2892C8.70733 -14.6299 7.41134 -14.095 8.0809 -13.3766C9.02044 -12.3659 12.0767 -11.8559 12.8111 -10.8669C13.2755 -10.2263 13.2646 -9.3649 14.3985 -8.78647C14.8413 -8.56567 15.5865 -8.45991 16.0509 -8.21734C17.2712 -7.5736 17.12 -6.60645 17.2712 -5.90673C17.39 -5.38739 18.0595 -5.34075 18.9235 -4.90848C21.1913 -3.78583 15.9753 -2.23092 13.621 -1.49389C12.7031 -1.20467 11.7851 -0.946557 11.5259 -0.579595C11.2128 -0.147326 11.4504 0.558626 11.7095 0.987785C11.9255 1.34231 12.8542 1.71549 12.8866 2.02959C12.9406 2.73241 11.2451 3.42901 10.9427 4.09763C10.8671 4.25934 10.9104 4.37131 10.9536 4.48638C10.9968 4.61388 11.04 4.74136 10.9212 4.93106C10.4244 5.73651 8.0701 6.34604 6.73098 7.02088C6.81738 7.02399 6.72025 7.12973 6.63385 7.23235C6.53666 7.33809 6.45022 7.44383 6.53662 7.44383C7.99453 7.45316 6.64459 8.03782 6.515 8.26794C6.28821 8.70021 6.53662 9.18846 6.53662 9.63317C6.53662 10.479 6.56902 11.328 6.53662 12.177C6.53662 12.432 6.38543 12.7274 6.59062 12.9793C6.74181 13.1504 7.32495 13.2965 7.32495 13.4862C7.33575 13.8625 6.08307 14.3974 5.64029 14.755C4.85194 15.405 4.22562 16.1607 4.87358 16.8231C5.64034 17.5913 7.96213 18.5273 9.61443 19.1368C10.7268 19.5473 11.7528 19.9454 12.8111 20.3652C13.4591 20.6296 14.593 20.838 14.7334 21.1241C14.9925 21.6807 13.4914 22.3307 13.1242 22.8687C12.4223 23.926 12.9299 25.1451 13.0055 26.218C13.0271 26.6907 12.7138 27.1229 12.4006 27.5521C12.0011 28.0901 11.6015 28.6219 11.8823 29.2162C12.1415 29.7638 12.8218 30.4747 12.0443 31.0137C10.8672 31.8396 5.69431 32.5331 5.8779 33.4782C5.9535 33.8626 6.56902 34.4236 7.88654 34.5738C7.86494 34.9712 7.22784 35.3556 7.24944 35.7885C7.26024 36.102 7.24944 36.4201 7.24944 36.7336C7.24944 37.3521 7.96215 38.3678 7.1522 38.9201C6.88222 39.1055 5.45671 39.5912 4.93834 39.7502C4.16078 39.9933 3.13483 40.0198 2.21688 40.1964C1.15855 40.4085 0.866986 40.6735 0.294621 40.9916C-0.364138 41.3449 -1.28206 41.6363 -2.05961 41.9721C-3.21514 42.4623 -4.12226 42.9791 -4.89982 43.5311C-5.72057 44.1142 -6.94091 44.6531 -7.67527 45.2362C-8.65801 45.9916 -7.28651 46.8925 -6.72495 47.6479C-6.32537 48.1778 -5.61264 48.4782 -4.5327 48.9065C-3.44197 49.3437 -3.46355 49.6043 -3.48515 50.1566C-3.50675 50.5099 -3.84148 51.0268 -3.38791 51.3667C-2.84794 51.7514 -0.86095 51.9632 -0.666561 52.4004C-0.418177 52.948 -3.8199 53.5887 -5.08343 53.9065C-6.76812 54.335 -9.04681 54.6926 -10.0187 55.2891C-10.9799 55.8853 -10.7315 56.6052 -10.494 57.2368C-10.1052 58.2086 -10.1592 59.1979 -9.39241 60.152C-9.19802 60.4126 -8.8092 60.6424 -8.59321 60.894C-8.04245 61.5433 -7.76173 62.2589 -7.09217 62.8774C-6.81138 63.1334 -6.53056 63.2394 -6.34697 63.5178C-6.05539 63.9286 -6.35773 64.4187 -6.35773 64.8385C-6.35773 65.8452 -6.37933 66.8568 -6.35773 67.8638C-6.34693 68.5175 -6.53056 69.2641 -7.4809 69.8382C-8.36645 70.3684 -9.50038 70.8231 -9.26279 71.4504C-9.0576 71.9361 -8.49602 72.3382 -8.48522 72.833C-8.48522 73.1244 -8.49608 73.4114 -8.49608 73.7031C-8.49608 74.2862 -8.45286 74.763 -7.98849 75.3283C-6.96255 76.53 -7.4377 77.9919 -4.56508 79.0032C-3.50674 79.3832 -1.94088 79.7014 -1.15253 80.134C-0.331782 80.5843 -0.418113 81.1307 -0.493709 81.6755C-0.547705 82.0932 -0.612544 82.5096 -0.266965 82.8812C0.704975 83.937 -1.61688 85.0192 -3.0208 85.9954C-3.58236 86.3838 -4.64072 86.808 -4.23034 87.2543C-4.04675 87.4617 -3.44197 87.5236 -3.39877 87.7575C-3.33398 88.0843 -4.62988 88.2392 -5.15904 88.4951C-5.8718 88.8397 -5.64506 89.1622 -5.63426 89.5556C-5.60186 90.96 -5.483 92.1349 -3.46353 93.4025C-2.69677 93.8826 -3.18272 94.3479 -3.65789 94.8286C-3.96028 95.1306 -4.27352 95.4391 -4.26272 95.7613C-4.25192 96.141 -3.63638 96.4414 -3.47439 96.8211C-3.07481 97.731 -3.48519 98.6189 -2.77243 99.5376C-2.30806 100.156 -1.31444 100.651 -0.472089 101.221C0.834631 102.104 -0.0401158 103.084 1.95776 103.804C2.9189 104.149 4.00955 104.52 4.08515 104.988C4.16074 105.496 3.07003 105.977 2.91884 106.477C2.84324 106.759 2.95122 107.06 2.95122 107.346C2.95122 107.519 2.92962 107.702 2.89722 107.891C2.81083 108.535 2.72443 109.237 3.81516 109.767C4.54952 110.125 5.42431 110.341 6.01827 110.739C6.43945 111.035 6.91457 111.326 7.10896 111.644C7.28175 111.899 7.217 112.178 7.1522 112.457C7.07661 112.783 7.00099 113.108 7.29257 113.393C7.55176 113.645 8.48054 114.034 9.00971 114.272C9.99245 114.71 11.1371 115.195 12.2926 115.597C12.7894 115.774 13.6426 115.938 13.9342 116.163C14.3121 116.445 14.053 116.406 13.783 116.746C13.3835 117.232 13.4483 118.031 13.837 118.535C14.2906 119.1 15.4893 119.484 17.3036 119.705C18.5347 119.851 18.5131 119.719 19.1071 120.089C19.6363 120.421 19.4743 120.862 19.4311 121.22C19.3339 121.869 17.9084 122.497 18.1568 123.141C18.2432 123.393 18.8802 123.468 18.6103 123.733C18.3943 123.946 16.6016 124.33 16.1264 124.453C14.7549 124.807 12.595 125.677 10.8347 125.792C12.3358 126.123 11.7744 127.439 10.9212 127.819C10.0681 128.203 8.78286 128.459 8.0809 128.883C7.50854 129.219 7.17378 129.595 6.59062 129.934C5.1543 130.783 3.66406 131.494 4.5496 132.466C4.90598 132.863 5.2083 132.779 4.59274 133.133C4.04197 133.45 3.05923 133.667 2.21688 133.919C0.14341 134.542 0.748236 135.16 1.52579 135.968C2.02256 136.48 2.70285 136.975 3.13483 137.501C3.4804 137.916 3.58844 138.384 4.312 138.751C5.20834 139.206 6.06149 139.484 6.74185 139.979C7.41141 140.451 8.14572 141.441 9.93841 141.653C7.71375 142.488 4.87358 143.018 5.08957 144.139C5.22996 144.868 6.39621 145.433 8.02691 146.021C7.58413 146.441 5.04635 146.454 3.82603 146.661C2.34652 146.918 0.931825 147.333 -0.310099 147.686C-2.84794 148.415 -3.77675 149.02 -4.15473 150.058C-4.23032 150.271 -4.2087 150.483 -4.1871 150.695C-4.1763 150.867 -4.15471 151.039 -4.1871 151.211C-4.2843 151.666 -5.01861 152.086 -5.60177 152.509C-6.57371 153.216 -7.78328 153.561 -7.80488 154.36C-7.81568 154.744 -7.78326 155.014 -8.32323 155.376C-10.0511 156.577 -11.6926 158.017 -10.6991 159.342C-10.4939 159.638 -9.72718 159.846 -9.39241 160.137C-8.97123 160.504 -8.8308 160.968 -8.48522 161.335C-8.10724 161.736 -7.84804 162.174 -7.27567 162.514C-5.26699 163.68 -5.94742 165.093 -4.5867 166.33C-3.87394 166.957 -3.77677 167.178 -4.55432 167.871C-4.8999 168.176 -5.27779 168.64 -5.76376 168.918C-6.46572 169.325 -7.48088 169.559 -7.99925 170.018C-8.48522 170.451 -8.74447 170.919 -8.55008 171.378C-8.33409 171.842 -7.58887 172.271 -7.24329 172.721C-7.0921 172.908 -7.11377 173.085 -7.14616 173.263C-7.16776 173.409 -7.18928 173.555 -7.11368 173.706C-6.7357 174.527 -2.92358 175.027 -5.05105 175.787C-6.37937 176.263 -8.34483 176.445 -9.29517 177.032C-9.95393 177.452 -10.3536 178.03 -9.792 178.476C-9.45722 178.741 -8.59325 178.927 -8.47446 179.285C-8.29087 179.801 -8.51762 180.279 -8.16124 180.804C-7.77246 181.422 -7.67531 182.354 -6.53058 182.911C-5.87182 183.233 -5.31021 183.344 -4.92144 183.741C-4.47866 184.183 -4.75951 184.951 -4.06835 185.345C-3.47439 185.676 -3.12881 185.534 -2.77243 185.998C-2.15687 186.842 -0.374895 187.434 0.121875 188.304C0.337862 188.662 0.154273 188.993 0.445855 189.36C0.715839 189.7 0.931783 190.08 1.15857 190.384C1.50415 190.822 1.5257 191.352 1.87128 191.833C2.23846 192.328 2.68125 192.451 3.5128 192.871C4.31195 193.269 3.85843 193.781 4.52798 194.161C4.87356 194.355 6.02903 194.541 6.515 194.744C7.10896 194.987 7.55176 195.331 8.15652 195.561C8.26451 195.601 8.82612 195.693 8.90171 195.738C9.43088 196.1 8.75048 196.413 8.64249 196.855C8.55609 197.263 8.81528 197.697 9.07446 198.13C9.40924 198.686 9.74406 199.239 9.33369 199.726C5.27314 199.951 5.41353 200.261 3.77203 201.312C3.07007 201.762 1.47177 202.597 1.45017 203.109C1.43937 203.274 1.56899 203.404 1.68778 203.53C1.83897 203.686 1.99016 203.835 1.90377 204.032C1.45019 205.018 -1.18487 205.826 -1.35766 206.855C-1.56284 207.933 -3.69035 208.909 -1.67088 209.964C-0.66654 210.49 1.23416 210.768 2.2925 211.272C3.09165 211.647 3.25362 211.943 4.37675 212.261C5.75907 212.663 6.49344 212.747 6.61223 213.37C6.68783 213.798 6.66627 214.337 6.38549 214.748C6.2127 214.973 5.72669 215.221 5.74829 215.45C5.76989 215.826 6.57986 216.126 6.57986 216.51C6.59066 217.133 5.38113 217.712 4.52798 218.268C3.52365 218.931 2.9621 219.13 3.84765 219.717C4.49561 220.15 4.2256 220.243 3.82603 220.808C3.22126 221.683 3.84756 222.296 5.54306 222.985C6.13702 223.22 6.27743 223.418 6.69861 223.67C7.17378 223.953 8.00539 224.156 8.70735 224.359C9.35531 224.545 10.7268 224.783 11.1803 225.079C11.6771 225.393 10.878 225.653 10.8132 226.015C10.7916 226.133 10.824 226.256 10.8564 226.38C10.8996 226.575 10.9428 226.772 10.7916 226.952C10.4676 227.318 9.4525 227.632 8.76134 227.946C7.30343 228.608 5.00311 229.575 5.2407 230.371C5.41349 230.931 6.32069 231.541 6.49348 232.142C6.54748 232.394 6.51502 232.658 6.48262 232.923C6.42862 233.292 6.37463 233.663 6.59062 234.01C6.68781 234.151 7.05499 234.121 7.18458 234.253C7.48696 234.527 7.26019 234.889 7.26019 235.181C7.26019 235.437 7.28183 235.687 7.30343 235.934C7.38983 236.896 7.46542 237.79 5.89952 238.688C5.13277 239.116 4.40919 239.549 3.66404 239.977C3.09167 240.309 1.67692 240.865 1.56892 241.227C1.45013 241.576 1.67694 241.479 2.2385 241.744C2.85406 242.036 2.85409 242.435 2.85409 242.839C2.85409 243.304 2.85406 243.777 3.80441 244.098C4.36597 244.288 5.45666 244.293 6.02903 244.5C6.57979 244.695 6.79584 244.96 7.22782 245.185C7.97297 245.547 8.30771 245.618 8.15652 246.064C8.03773 246.479 7.97291 246.868 7.97291 247.292C7.97291 247.848 7.62737 248.528 8.07015 249.076C8.51292 249.65 10.1004 250.154 11.3747 250.591C10.5755 250.635 9.19328 250.68 8.71811 250.467C8.66411 250.622 8.32933 250.737 7.74616 250.807C6.32065 251.121 5.20832 251.514 4.45237 251.987C3.51282 252.557 2.50851 253.511 2.90808 254.169C3.16727 254.588 4.07435 255.021 4.40913 255.454C4.8627 256.024 5.11115 256.607 5.12195 257.194C4.93836 257.384 5.13277 257.499 5.68353 257.535C5.86712 257.861 5.19748 257.985 5.05709 258.312C4.8627 258.745 5.9427 258.798 6.41787 259.142C7.14142 259.672 5.52152 260.33 5.22994 260.847C4.85196 261.532 6.41789 262.23 6.54748 262.892C6.66627 263.426 6.47188 263.948 6.00751 264.403C5.08957 265.268 2.76765 266.562 3.6208 267.459C4.06357 267.914 4.57118 267.601 3.82603 268.148C2.6273 269.045 0.0678571 269.747 -1.46565 270.591C-1.97322 270.869 -1.6925 271.139 -2.12447 271.381C-2.71844 271.708 -4.73789 271.907 -5.50464 272.269C-6.71417 272.821 -6.12014 273.325 -5.81776 273.939C-5.49378 274.601 -5.78536 275.012 -6.19574 275.608C-6.57371 276.134 -6.54136 276.545 -7.21092 277.088C-8.03167 277.755 -8.74447 278.387 -9.09004 279.089C-9.30603 279.522 -8.93881 279.5 -8.66883 279.818C-8.33405 280.211 -8.47444 280.595 -8.66883 281.001C-8.89561 281.509 -9.71634 282.146 -9.07918 282.649C-8.65801 282.98 -7.8805 283.06 -7.7725 283.515C-7.57812 284.31 -6.46578 284.999 -6.31459 285.816C-6.29299 285.955 -6.30379 286.076 -6.31459 286.186C-6.34699 286.491 -6.36853 286.717 -5.65577 287.022C-4.81342 287.384 -4.29514 287.353 -4.17635 287.923C-3.99276 288.718 -4.70547 289.782 -1.59526 290.219C-2.51321 291.257 -4.2519 292.207 -4.99705 293.285C-5.40743 293.872 -6.37941 294.893 -5.58026 295.493C-5.0079 295.931 -4.38145 296.116 -4.19786 296.686C-4.04667 297.189 -4.03587 297.808 -3.33391 298.28C-2.73995 298.682 -2.308 298.386 -2.76157 298.943C-3.03155 299.292 -3.29076 299.574 -3.32316 299.928C-3.32316 300.019 -3.30156 300.099 -3.26916 300.177C-3.21516 300.336 -3.16112 300.483 -3.38791 300.688C-3.74429 301.032 -8.19368 303.157 -3.61476 303.143C-3.38797 303.669 -3.15033 304.256 -1.49803 304.552C-2.68595 305.14 -5.67737 305.316 -7.05968 305.944C-7.76164 306.263 -7.74011 306.422 -7.71851 306.659C-7.70771 306.77 -7.69685 306.897 -7.76164 307.065C-7.88043 307.428 -8.3664 307.732 -8.5176 308.081C-8.75518 308.616 -8.49608 309.208 -8.49608 309.747C-8.49608 310.1 -8.42042 310.462 -8.48522 310.82C-8.57161 311.306 -9.16556 311.756 -9.27355 312.255C-9.39234 312.847 -9.27355 313.439 -8.73358 314H45L45 -40Z" fill="#EEECE7"/>
</g>
<rect x="43" y="-7" width="124" height="52" fill="#EEECE7"/>
</g>
<defs>
<filter id="filter0_d_304_634" x="165" y="-10" width="60" height="358" filterUnits="userSpaceOnUse" color-interpolation-filters="sRGB">
<feFlood flood-opacity="0" result="BackgroundImageFix"/>
<feColorMatrix in="SourceAlpha" type="matrix" values="0 0 0 0 0 0 0 0 0 0 0 0 0 0 0 0 0 0 127 0" result="hardAlpha"/>
<feOffset dy="-1"/>
<feGaussianBlur stdDeviation="1"/>
<feComposite in2="hardAlpha" operator="out"/>
<feColorMatrix type="matrix" values="0 0 0 0 0 0 0 0 0 0 0 0 0 0 0 0 0 0 0.25 0"/>
<feBlend mode="normal" in2="BackgroundImageFix" result="effect1_dropShadow_304_634"/>
<feBlend mode="normal" in="SourceGraphic" in2="effect1_dropShadow_304_634" result="shape"/>
</filter>
<filter id="filter1_d_304_634" x="-13" y="-43" width="60" height="358" filterUnits="userSpaceOnUse" color-interpolation-filters="sRGB">
<feFlood flood-opacity="0" result="BackgroundImageFix"/>
<feColorMatrix in="SourceAlpha" type="matrix" values="0 0 0 0 0 0 0 0 0 0 0 0 0 0 0 0 0 0 127 0" result="hardAlpha"/>
<feOffset dy="-1"/>
<feGaussianBlur stdDeviation="1"/>
<feComposite in2="hardAlpha" operator="out"/>
<feColorMatrix type="matrix" values="0 0 0 0 0 0 0 0 0 0 0 0 0 0 0 0 0 0 0.25 0"/>
<feBlend mode="normal" in2="BackgroundImageFix" result="effect1_dropShadow_304_634"/>
<feBlend mode="normal" in="SourceGraphic" in2="effect1_dropShadow_304_634" result="shape"/>
</filter>
<clipPath id="clip0_304_634">
<rect width="215" height="39" fill="white"/>
</clipPath>
</defs>
</svg>
