<svg width="344" height="52" viewBox="0 0 344 52" fill="none" xmlns="http://www.w3.org/2000/svg">
<g clip-path="url(#clip0_304_614)">
<g filter="url(#filter0_d_304_614)">
<path d="M288 9.53754e-07H335.124C335.124 0.105736 335.103 0.211442 335.081 0.317177C334.8 1.25324 334.973 2.22043 334.498 3.21869C334.336 3.58876 334.466 3.95573 334.185 4.31025C334.034 4.49995 333.332 4.76429 333.224 4.92911C332.965 5.33339 333.796 5.59148 334.379 6.02375C335.027 6.50577 335.319 7.13709 335.589 7.64399C335.697 7.85235 335.697 7.93633 335.502 8.1478C335.049 8.60805 333.969 9.02166 333.526 9.51302C332.965 10.1443 332.813 10.816 331.507 11.3727L331.474 11.3852C330.675 11.721 329.444 11.9107 328.774 12.2777C327.846 12.7784 327.392 13.1826 325.74 13.5776C324.638 13.8357 323.31 14.013 322.154 14.2617C321.01 14.5074 318.072 15.0641 317.867 15.5057C317.813 15.6425 319.779 16.3671 320.07 16.5133C321.971 17.4867 323.645 18.5689 324.951 19.6232C326.463 20.864 325.61 21.7783 324.282 22.988C323.666 23.5353 323.213 24.1386 323.72 24.7108C324.293 25.3701 325.589 25.905 324.919 26.6234C323.98 27.6341 320.923 28.1441 320.189 29.1331C319.725 29.7737 319.735 30.6351 318.601 31.2135C318.159 31.4343 317.413 31.5401 316.949 31.7827C315.729 32.4264 315.88 33.3936 315.729 34.0933C315.61 34.6126 314.94 34.6592 314.077 35.0915C311.809 36.2142 317.025 37.7691 319.379 38.5061C320.297 38.7953 321.215 39.0534 321.474 39.4204C321.787 39.8527 321.55 40.5586 321.29 40.9878C321.074 41.3423 320.146 41.7155 320.113 42.0296C320.059 42.7324 321.755 43.429 322.057 44.0976C322.133 44.2593 322.09 44.3713 322.046 44.4864C322.003 44.6139 321.96 44.7414 322.079 44.9311C322.576 45.7365 324.93 46.346 326.269 47.0209C326.183 47.024 326.28 47.1297 326.366 47.2324C326.463 47.3381 326.55 47.4438 326.463 47.4438C325.005 47.4532 326.355 48.0378 326.485 48.2679C326.712 48.7002 326.463 49.1885 326.463 49.6332C326.463 50.479 326.431 51.328 326.463 52.177C326.463 52.432 326.615 52.7274 326.409 52.9793C326.258 53.1504 325.675 53.2965 325.675 53.4862C325.664 53.8625 326.917 54.3974 327.36 54.755C328.148 55.405 328.774 56.1607 328.126 56.8231C327.36 57.5913 325.038 58.5273 323.386 59.1368C322.273 59.5473 321.247 59.9454 320.189 60.3652C319.541 60.6296 318.407 60.838 318.267 61.1241C318.007 61.6807 319.509 62.3307 319.876 62.8687C320.578 63.926 320.07 65.1451 319.995 66.218C319.973 66.6907 320.286 67.1229 320.599 67.5521C320.999 68.0901 321.398 68.6219 321.118 69.2162C320.859 69.7638 320.178 70.4747 320.956 71.0137C322.133 71.8396 327.306 72.5331 327.122 73.4782C327.047 73.8626 326.431 74.4236 325.113 74.5738C325.135 74.9712 325.772 75.3556 325.751 75.7885C325.74 76.102 325.751 76.4201 325.751 76.7336C325.751 77.3521 325.038 78.3678 325.848 78.9201C326.118 79.1055 327.543 79.5912 328.062 79.7502C328.839 79.9933 329.865 80.0198 330.783 80.1964C331.841 80.4085 332.133 80.6735 332.705 80.9916C333.364 81.3449 334.282 81.6363 335.06 81.9721C336.215 82.4623 337.122 82.9791 337.9 83.5311C338.721 84.1142 339.941 84.6531 340.675 85.2362C341.658 85.9916 340.287 86.8925 339.725 87.6479C339.325 88.1778 338.613 88.4782 337.533 88.9065C336.442 89.3437 336.464 89.6043 336.485 90.1566C336.507 90.5099 336.841 91.0268 336.388 91.3667C335.848 91.7514 333.861 91.9632 333.667 92.4004C333.418 92.948 336.82 93.5887 338.083 93.9065C339.768 94.335 342.047 94.6926 343.019 95.2891C343.98 95.8853 343.732 96.6052 343.494 97.2368C343.105 98.2086 343.159 99.1979 342.392 100.152C342.198 100.413 341.809 100.642 341.593 100.894C341.042 101.543 340.762 102.259 340.092 102.877C339.811 103.133 339.531 103.239 339.347 103.518C339.055 103.929 339.358 104.419 339.358 104.839C339.358 105.845 339.379 106.857 339.358 107.864C339.347 108.517 339.531 109.264 340.481 109.838C341.366 110.368 342.5 110.823 342.263 111.45C342.058 111.936 341.496 112.338 341.485 112.833C341.485 113.124 341.496 113.411 341.496 113.703C341.496 114.286 341.453 114.763 340.988 115.328C339.963 116.53 340.438 117.992 337.565 119.003C336.507 119.383 334.941 119.701 334.153 120.134C333.332 120.584 333.418 121.131 333.494 121.676C333.548 122.093 333.613 122.51 333.267 122.881C332.295 123.937 334.617 125.019 336.021 125.995C336.582 126.384 337.641 126.808 337.23 127.254C337.047 127.462 336.442 127.524 336.399 127.757C336.334 128.084 337.63 128.239 338.159 128.495C338.872 128.84 338.645 129.162 338.634 129.556C338.602 130.96 338.483 132.135 336.464 133.402C335.697 133.883 336.183 134.348 336.658 134.829C336.96 135.131 337.274 135.439 337.263 135.761C337.252 136.141 336.636 136.441 336.474 136.821C336.075 137.731 336.485 138.619 335.772 139.538C335.308 140.156 334.314 140.651 333.472 141.221C332.165 142.104 333.04 143.084 331.042 143.804C330.081 144.149 328.99 144.52 328.915 144.988C328.839 145.496 329.93 145.977 330.081 146.477C330.157 146.759 330.049 147.06 330.049 147.346C330.049 147.519 330.07 147.702 330.103 147.891C330.189 148.535 330.276 149.237 329.185 149.767C328.45 150.125 327.576 150.341 326.982 150.739C326.561 151.035 326.085 151.326 325.891 151.644C325.718 151.899 325.783 152.178 325.848 152.457C325.923 152.783 325.999 153.108 325.707 153.393C325.448 153.645 324.519 154.034 323.99 154.272C323.008 154.71 321.863 155.195 320.707 155.597C320.211 155.774 319.357 155.938 319.066 156.163C318.688 156.445 318.947 156.406 319.217 156.746C319.617 157.232 319.552 158.031 319.163 158.535C318.709 159.1 317.511 159.484 315.696 159.705C314.465 159.851 314.487 159.719 313.893 160.089C313.364 160.421 313.526 160.862 313.569 161.22C313.666 161.869 315.092 162.497 314.843 163.141C314.757 163.393 314.12 163.468 314.39 163.733C314.606 163.946 316.398 164.33 316.874 164.453C318.245 164.807 320.405 165.677 322.165 165.792C320.664 166.123 321.226 167.439 322.079 167.819C322.932 168.203 324.217 168.459 324.919 168.883C325.491 169.219 325.826 169.595 326.409 169.934C327.846 170.783 329.336 171.494 328.45 172.466C328.094 172.863 327.792 172.779 328.407 173.133C328.958 173.45 329.941 173.667 330.783 173.919C332.857 174.542 332.252 175.16 331.474 175.968C330.977 176.48 330.297 176.975 329.865 177.501C329.52 177.916 329.412 178.384 328.688 178.751C327.792 179.206 326.939 179.484 326.258 179.979C325.589 180.451 324.854 181.441 323.062 181.653C325.286 182.488 328.126 183.018 327.91 184.139C327.77 184.868 326.604 185.433 324.973 186.021C325.416 186.441 327.954 186.454 329.174 186.661C330.653 186.918 332.068 187.333 333.31 187.686C335.848 188.415 336.777 189.02 337.155 190.058C337.23 190.271 337.209 190.483 337.187 190.695C337.176 190.867 337.155 191.039 337.187 191.211C337.284 191.666 338.019 192.086 338.602 192.509C339.574 193.216 340.783 193.561 340.805 194.36C340.816 194.744 340.783 195.014 341.323 195.376C343.051 196.577 344.693 198.017 343.699 199.342C343.494 199.638 342.727 199.846 342.392 200.137C341.971 200.504 341.831 200.968 341.485 201.335C341.107 201.736 340.848 202.174 340.276 202.514C338.267 203.68 338.947 205.093 337.587 206.33C336.874 206.957 336.777 207.178 337.554 207.871C337.9 208.176 338.278 208.64 338.764 208.918C339.466 209.325 340.481 209.559 340.999 210.018C341.485 210.451 341.744 210.919 341.55 211.378C341.334 211.842 340.589 212.271 340.243 212.721C340.092 212.908 340.114 213.085 340.146 213.263C340.168 213.409 340.189 213.555 340.114 213.706C339.736 214.527 335.924 215.027 338.051 215.787C339.379 216.263 341.345 216.445 342.295 217.032C342.954 217.452 343.354 218.03 342.792 218.476C342.457 218.741 341.593 218.927 341.474 219.285C341.291 219.801 341.518 220.279 341.161 220.804C340.772 221.422 340.675 222.354 339.531 222.911C338.872 223.233 338.31 223.344 337.921 223.741C337.479 224.183 337.76 224.951 337.068 225.345C336.474 225.676 336.129 225.534 335.772 225.998C335.157 226.842 333.375 227.434 332.878 228.304C332.662 228.662 332.846 228.993 332.554 229.36C332.284 229.7 332.068 230.08 331.841 230.384C331.496 230.822 331.474 231.352 331.129 231.833C330.762 232.328 330.319 232.451 329.487 232.871C328.688 233.269 329.142 233.781 328.472 234.161C328.126 234.355 326.971 234.541 326.485 234.744C325.891 234.987 325.448 235.331 324.843 235.561C324.735 235.601 324.174 235.693 324.098 235.738C323.569 236.1 324.25 236.413 324.358 236.855C324.444 237.263 324.185 237.697 323.926 238.13C323.591 238.686 323.256 239.239 323.666 239.726C327.727 239.951 327.586 240.261 329.228 241.312C329.93 241.762 331.528 242.597 331.55 243.109C331.561 243.274 331.431 243.404 331.312 243.53C331.161 243.686 331.01 243.835 331.096 244.032C331.55 245.018 334.185 245.826 334.358 246.855C334.563 247.933 336.69 248.909 334.671 249.964C333.667 250.49 331.766 250.768 330.708 251.272C329.908 251.647 329.746 251.943 328.623 252.261C327.241 252.663 326.507 252.747 326.388 253.37C326.312 253.798 326.334 254.337 326.615 254.748C326.787 254.973 327.273 255.221 327.252 255.45C327.23 255.826 326.42 256.126 326.42 256.51C326.409 257.133 327.619 257.712 328.472 258.268C329.476 258.931 330.038 259.13 329.152 259.717C328.504 260.15 328.774 260.243 329.174 260.808C329.779 261.683 329.152 262.296 327.457 262.985C326.863 263.22 326.723 263.418 326.301 263.67C325.826 263.953 324.995 264.156 324.293 264.359C323.645 264.545 322.273 264.783 321.82 265.079C321.323 265.393 322.122 265.653 322.187 266.015C322.208 266.133 322.176 266.256 322.144 266.38C322.1 266.575 322.057 266.772 322.208 266.952C322.532 267.318 323.547 267.632 324.239 267.946C325.697 268.608 327.997 269.575 327.759 270.371C327.587 270.931 326.679 271.541 326.507 272.142C326.453 272.394 326.485 272.658 326.517 272.923C326.571 273.292 326.625 273.663 326.409 274.01C326.312 274.151 325.945 274.121 325.815 274.253C325.513 274.527 325.74 274.889 325.74 275.181C325.74 275.437 325.718 275.687 325.697 275.934C325.61 276.896 325.535 277.79 327.1 278.688C327.867 279.116 328.591 279.549 329.336 279.977C329.908 280.309 331.323 280.865 331.431 281.227C331.55 281.576 331.323 281.479 330.761 281.744C330.146 282.036 330.146 282.435 330.146 282.839C330.146 283.304 330.146 283.777 329.196 284.098C328.634 284.288 327.543 284.293 326.971 284.5C326.42 284.695 326.204 284.96 325.772 285.185C325.027 285.547 324.692 285.618 324.843 286.064C324.962 286.479 325.027 286.868 325.027 287.292C325.027 287.848 325.373 288.528 324.93 289.076C324.487 289.65 322.9 290.154 321.625 290.591C322.424 290.635 323.807 290.68 324.282 290.467C324.336 290.622 324.671 290.737 325.254 290.807C326.679 291.121 327.792 291.514 328.548 291.987C329.487 292.557 330.491 293.511 330.092 294.169C329.833 294.588 328.926 295.021 328.591 295.454C328.137 296.024 327.889 296.607 327.878 297.194C328.062 297.384 327.867 297.499 327.316 297.535C327.133 297.861 327.803 297.985 327.943 298.312C328.137 298.745 327.057 298.798 326.582 299.142C325.859 299.672 327.478 300.33 327.77 300.847C328.148 301.532 326.582 302.23 326.453 302.892C326.334 303.426 326.528 303.948 326.992 304.403C327.91 305.268 330.232 306.562 329.379 307.459C328.936 307.914 328.429 307.601 329.174 308.148C330.373 309.045 332.932 309.747 334.466 310.591C334.973 310.869 334.692 311.139 335.124 311.381C335.718 311.708 337.738 311.907 338.505 312.269C339.714 312.821 339.12 313.325 338.818 313.939C338.494 314.601 338.785 315.012 339.196 315.608C339.574 316.134 339.541 316.545 340.211 317.088C341.032 317.755 341.744 318.387 342.09 319.089C342.306 319.522 341.939 319.5 341.669 319.818C341.334 320.211 341.474 320.595 341.669 321.001C341.896 321.509 342.716 322.146 342.079 322.649C341.658 322.98 340.88 323.06 340.773 323.515C340.578 324.31 339.466 324.999 339.315 325.816C339.293 325.955 339.304 326.076 339.315 326.186C339.347 326.491 339.369 326.717 338.656 327.022C337.813 327.384 337.295 327.353 337.176 327.923C336.993 328.718 337.705 329.782 334.595 330.219C335.513 331.257 337.252 332.207 337.997 333.285C338.407 333.872 339.379 334.893 338.58 335.493C338.008 335.931 337.381 336.116 337.198 336.686C337.047 337.189 337.036 337.808 336.334 338.28C335.74 338.682 335.308 338.386 335.762 338.943C336.032 339.292 336.291 339.574 336.323 339.928C336.323 340.019 336.302 340.099 336.269 340.177C336.215 340.336 336.161 340.483 336.388 340.688C336.744 341.032 341.194 343.157 336.615 343.143C336.388 343.669 336.15 344.256 334.498 344.552C335.686 345.14 338.677 345.316 340.06 345.944C340.762 346.263 340.74 346.422 340.719 346.659C340.708 346.77 340.697 346.897 340.762 347.065C340.88 347.428 341.366 347.732 341.518 348.081C341.755 348.616 341.496 349.208 341.496 349.747C341.496 350.1 341.42 350.462 341.485 350.82C341.572 351.306 342.166 351.756 342.274 352.255C342.392 352.847 342.274 353.439 341.734 354H288V9.53754e-07Z" fill="#EDE8DC"/>
</g>
<g filter="url(#filter1_d_304_614)">
<path d="M65 -33H17.8755C17.8755 -32.8943 17.8972 -32.7886 17.9188 -32.6828C18.1996 -31.7468 18.0268 -30.7796 18.502 -29.7813C18.664 -29.4112 18.5343 -29.0443 18.8151 -28.6897C18.9663 -28.5 19.6683 -28.2357 19.7763 -28.0709C20.0355 -27.6666 19.2039 -27.4085 18.6207 -26.9763C17.9728 -26.4942 17.6812 -25.8629 17.4112 -25.356C17.3032 -25.1476 17.3032 -25.0637 17.4976 -24.8522C17.9511 -24.3919 19.0311 -23.9783 19.4739 -23.487C20.0355 -22.8557 20.1866 -22.184 21.4933 -21.6273L21.5258 -21.6148C22.3249 -21.279 23.5561 -21.0893 24.2256 -20.7223C25.1544 -20.2216 25.6079 -19.8174 27.2602 -19.4224C28.3617 -19.1643 29.6901 -18.987 30.8456 -18.7383C31.9903 -18.4926 34.9278 -17.9359 35.133 -17.4943C35.187 -17.3575 33.2214 -16.6329 32.9298 -16.4867C31.0292 -15.5133 29.3552 -14.4311 28.0485 -13.3768C26.5366 -12.136 27.3898 -11.2217 28.7181 -10.012C29.3337 -9.46468 29.7873 -8.86138 29.2797 -8.28917C28.7073 -7.62988 27.4113 -7.09497 28.0809 -6.37659C29.0204 -5.36589 32.0767 -4.85587 32.8111 -3.86693C33.2755 -3.22631 33.2646 -2.3649 34.3985 -1.78647C34.8413 -1.56567 35.5865 -1.45991 36.0509 -1.21734C37.2712 -0.573603 37.12 0.393551 37.2712 1.09327C37.39 1.61261 38.0595 1.65925 38.9235 2.09152C41.1913 3.21417 35.9753 4.76908 33.621 5.50611C32.7031 5.79533 31.7851 6.05344 31.5259 6.42041C31.2128 6.85267 31.4504 7.55863 31.7095 7.98778C31.9255 8.34231 32.8542 8.71549 32.8866 9.02959C32.9406 9.73241 31.2451 10.429 30.9427 11.0976C30.8671 11.2593 30.9104 11.3713 30.9536 11.4864C30.9968 11.6139 31.04 11.7414 30.9212 11.9311C30.4244 12.7365 28.0701 13.346 26.731 14.0209C26.8174 14.024 26.7202 14.1297 26.6339 14.2324C26.5367 14.3381 26.4502 14.4438 26.5366 14.4438C27.9945 14.4532 26.6446 15.0378 26.515 15.2679C26.2882 15.7002 26.5366 16.1885 26.5366 16.6332C26.5366 17.479 26.569 18.328 26.5366 19.177C26.5366 19.432 26.3854 19.7274 26.5906 19.9793C26.7418 20.1504 27.3249 20.2965 27.3249 20.4862C27.3357 20.8625 26.0831 21.3974 25.6403 21.755C24.8519 22.405 24.2256 23.1607 24.8736 23.8231C25.6403 24.5913 27.9621 25.5273 29.6144 26.1368C30.7268 26.5473 31.7528 26.9454 32.8111 27.3652C33.4591 27.6296 34.593 27.838 34.7334 28.1241C34.9925 28.6807 33.4914 29.3307 33.1242 29.8687C32.4223 30.926 32.9299 32.1451 33.0055 33.218C33.0271 33.6907 32.7138 34.1229 32.4006 34.5521C32.0011 35.0901 31.6015 35.6219 31.8823 36.2162C32.1415 36.7638 32.8218 37.4747 32.0443 38.0137C30.8672 38.8396 25.6943 39.5331 25.8779 40.4782C25.9535 40.8626 26.569 41.4236 27.8865 41.5738C27.8649 41.9712 27.2278 42.3556 27.2494 42.7885C27.2602 43.102 27.2494 43.4201 27.2494 43.7336C27.2494 44.3521 27.9622 45.3678 27.1522 45.9201C26.8822 46.1055 25.4567 46.5912 24.9383 46.7502C24.1608 46.9933 23.1348 47.0198 22.2169 47.1964C21.1585 47.4085 20.867 47.6735 20.2946 47.9916C19.6359 48.3449 18.7179 48.6363 17.9404 48.9721C16.7849 49.4623 15.8777 49.9791 15.1002 50.5311C14.2794 51.1142 13.0591 51.6531 12.3247 52.2362C11.342 52.9916 12.7135 53.8925 13.2751 54.6479C13.6746 55.1778 14.3874 55.4782 15.4673 55.9065C16.558 56.3437 16.5365 56.6043 16.5149 57.1566C16.4933 57.5099 16.1585 58.0268 16.6121 58.3667C17.1521 58.7514 19.1391 58.9632 19.3334 59.4004C19.5818 59.948 16.1801 60.5887 14.9166 60.9065C13.2319 61.335 10.9532 61.6926 9.98125 62.2891C9.02011 62.8853 9.26846 63.6052 9.50604 64.2368C9.89482 65.2086 9.84084 66.1979 10.6076 67.152C10.802 67.4126 11.1908 67.6424 11.4068 67.894C11.9576 68.5433 12.2383 69.2589 12.9078 69.8774C13.1886 70.1334 13.4694 70.2394 13.653 70.5178C13.9446 70.9286 13.6423 71.4187 13.6423 71.8385C13.6423 72.8452 13.6207 73.8568 13.6423 74.8638C13.6531 75.5175 13.4694 76.2641 12.5191 76.8382C11.6336 77.3684 10.4996 77.8231 10.7372 78.4504C10.9424 78.9361 11.504 79.3382 11.5148 79.833C11.5148 80.1244 11.5039 80.4114 11.5039 80.7031C11.5039 81.2862 11.5471 81.763 12.0115 82.3283C13.0374 83.53 12.5623 84.9919 15.4349 86.0032C16.4933 86.3832 18.0591 86.7014 18.8475 87.134C19.6682 87.5843 19.5819 88.1307 19.5063 88.6755C19.4523 89.0932 19.3875 89.5096 19.733 89.8812C20.705 90.937 18.3831 92.0192 16.9792 92.9954C16.4176 93.3838 15.3593 93.808 15.7697 94.2543C15.9532 94.4617 16.558 94.5236 16.6012 94.7575C16.666 95.0843 15.3701 95.2392 14.841 95.4951C14.1282 95.8397 14.3549 96.1622 14.3657 96.5556C14.3981 97.96 14.517 99.1349 16.5365 100.402C17.3032 100.883 16.8173 101.348 16.3421 101.829C16.0397 102.131 15.7265 102.439 15.7373 102.761C15.7481 103.141 16.3636 103.441 16.5256 103.821C16.9252 104.731 16.5148 105.619 17.2276 106.538C17.6919 107.156 18.6856 107.651 19.5279 108.221C20.8346 109.104 19.9599 110.084 21.9578 110.804C22.9189 111.149 24.0096 111.52 24.0851 111.988C24.1607 112.496 23.07 112.977 22.9188 113.477C22.8432 113.759 22.9512 114.06 22.9512 114.346C22.9512 114.519 22.9296 114.702 22.8972 114.891C22.8108 115.535 22.7244 116.237 23.8152 116.767C24.5495 117.125 25.4243 117.341 26.0183 117.739C26.4394 118.035 26.9146 118.326 27.109 118.644C27.2818 118.899 27.217 119.178 27.1522 119.457C27.0766 119.783 27.001 120.108 27.2926 120.393C27.5518 120.645 28.4805 121.034 29.0097 121.272C29.9924 121.71 31.1371 122.195 32.2926 122.597C32.7894 122.774 33.6426 122.938 33.9342 123.163C34.3121 123.445 34.053 123.406 33.783 123.746C33.3835 124.232 33.4483 125.031 33.837 125.535C34.2906 126.1 35.4893 126.484 37.3036 126.705C38.5347 126.851 38.5131 126.719 39.1071 127.089C39.6363 127.421 39.4743 127.862 39.4311 128.22C39.3339 128.869 37.9084 129.497 38.1568 130.141C38.2432 130.393 38.8802 130.468 38.6103 130.733C38.3943 130.946 36.6016 131.33 36.1264 131.453C34.7549 131.807 32.595 132.677 30.8347 132.792C32.3358 133.123 31.7744 134.439 30.9212 134.819C30.0681 135.203 28.7829 135.459 28.0809 135.883C27.5085 136.219 27.1738 136.595 26.5906 136.934C25.1543 137.783 23.6641 138.494 24.5496 139.466C24.906 139.863 25.2083 139.779 24.5927 140.133C24.042 140.45 23.0592 140.667 22.2169 140.919C20.1434 141.542 20.7482 142.16 21.5258 142.968C22.0226 143.48 22.7029 143.975 23.1348 144.501C23.4804 144.916 23.5884 145.384 24.312 145.751C25.2083 146.206 26.0615 146.484 26.7418 146.979C27.4114 147.451 28.1457 148.441 29.9384 148.653C27.7137 149.488 24.8736 150.018 25.0896 151.139C25.23 151.868 26.3962 152.433 28.0269 153.021C27.5841 153.441 25.0464 153.454 23.826 153.661C22.3465 153.918 20.9318 154.333 19.6899 154.686C17.1521 155.415 16.2233 156.02 15.8453 157.058C15.7697 157.271 15.7913 157.483 15.8129 157.695C15.8237 157.867 15.8453 158.039 15.8129 158.211C15.7157 158.666 14.9814 159.086 14.3982 159.509C13.4263 160.216 12.2167 160.561 12.1951 161.36C12.1843 161.744 12.2167 162.014 11.6768 162.376C9.94888 163.577 8.30738 165.017 9.30092 166.342C9.5061 166.638 10.2728 166.846 10.6076 167.137C11.0288 167.504 11.1692 167.968 11.5148 168.335C11.8928 168.736 12.152 169.174 12.7243 169.514C14.733 170.68 14.0526 172.093 15.4133 173.33C16.1261 173.957 16.2232 174.178 15.4457 174.871C15.1001 175.176 14.7222 175.64 14.2362 175.918C13.5343 176.325 12.5191 176.559 12.0008 177.018C11.5148 177.451 11.2555 177.919 11.4499 178.378C11.6659 178.842 12.4111 179.271 12.7567 179.721C12.9079 179.908 12.8862 180.085 12.8538 180.263C12.8322 180.409 12.8107 180.555 12.8863 180.706C13.2643 181.527 17.0764 182.027 14.9489 182.787C13.6206 183.263 11.6552 183.445 10.7048 184.032C10.0461 184.452 9.64643 185.03 10.208 185.476C10.5428 185.741 11.4067 185.927 11.5255 186.285C11.7091 186.801 11.4824 187.279 11.8388 187.804C12.2275 188.422 12.3247 189.354 13.4694 189.911C14.1282 190.233 14.6898 190.344 15.0786 190.741C15.5213 191.183 15.2405 191.951 15.9316 192.345C16.5256 192.676 16.8712 192.534 17.2276 192.998C17.8431 193.842 19.6251 194.434 20.1219 195.304C20.3379 195.662 20.1543 195.993 20.4459 196.36C20.7158 196.7 20.9318 197.08 21.1586 197.384C21.5041 197.822 21.5257 198.352 21.8713 198.833C22.2385 199.328 22.6813 199.451 23.5128 199.871C24.312 200.269 23.8584 200.781 24.528 201.161C24.8736 201.355 26.029 201.541 26.515 201.744C27.109 201.987 27.5518 202.331 28.1565 202.561C28.2645 202.601 28.8261 202.693 28.9017 202.738C29.4309 203.1 28.7505 203.413 28.6425 203.855C28.5561 204.263 28.8153 204.697 29.0745 205.13C29.4092 205.686 29.7441 206.239 29.3337 206.726C25.2731 206.951 25.4135 207.261 23.772 208.312C23.0701 208.762 21.4718 209.597 21.4502 210.109C21.4394 210.274 21.569 210.404 21.6878 210.53C21.839 210.686 21.9902 210.835 21.9038 211.032C21.4502 212.018 18.8151 212.826 18.6423 213.855C18.4372 214.933 16.3096 215.909 18.3291 216.964C19.3335 217.49 21.2342 217.768 22.2925 218.272C23.0917 218.647 23.2536 218.943 24.3768 219.261C25.7591 219.663 26.4934 219.747 26.6122 220.37C26.6878 220.798 26.6663 221.337 26.3855 221.748C26.2127 221.973 25.7267 222.221 25.7483 222.45C25.7699 222.826 26.5799 223.126 26.5799 223.51C26.5907 224.133 25.3811 224.712 24.528 225.268C23.5236 225.931 22.9621 226.13 23.8476 226.717C24.4956 227.15 24.2256 227.243 23.826 227.808C23.2213 228.683 23.8476 229.296 25.5431 229.985C26.137 230.22 26.2774 230.418 26.6986 230.67C27.1738 230.953 28.0054 231.156 28.7073 231.359C29.3553 231.545 30.7268 231.783 31.1803 232.079C31.6771 232.393 30.878 232.653 30.8132 233.015C30.7916 233.133 30.824 233.256 30.8564 233.38C30.8996 233.575 30.9428 233.772 30.7916 233.952C30.4676 234.318 29.4525 234.632 28.7613 234.946C27.3034 235.608 25.0031 236.575 25.2407 237.371C25.4135 237.931 26.3207 238.541 26.4935 239.142C26.5475 239.394 26.515 239.658 26.4826 239.923C26.4286 240.292 26.3746 240.663 26.5906 241.01C26.6878 241.151 27.055 241.121 27.1846 241.253C27.487 241.527 27.2602 241.889 27.2602 242.181C27.2602 242.437 27.2818 242.687 27.3034 242.934C27.3898 243.896 27.4654 244.79 25.8995 245.688C25.1328 246.116 24.4092 246.549 23.664 246.977C23.0917 247.309 21.6769 247.865 21.5689 248.227C21.4501 248.576 21.6769 248.479 22.2385 248.744C22.8541 249.036 22.8541 249.435 22.8541 249.839C22.8541 250.304 22.8541 250.777 23.8044 251.098C24.366 251.288 25.4567 251.293 26.029 251.5C26.5798 251.695 26.7958 251.96 27.2278 252.185C27.973 252.547 28.3077 252.618 28.1565 253.064C28.0377 253.479 27.9729 253.868 27.9729 254.292C27.9729 254.848 27.6274 255.528 28.0701 256.076C28.5129 256.65 30.1004 257.154 31.3747 257.591C30.5755 257.635 29.1933 257.68 28.7181 257.467C28.6641 257.622 28.3293 257.737 27.7462 257.807C26.3207 258.121 25.2083 258.514 24.4524 258.987C23.5128 259.557 22.5085 260.511 22.9081 261.169C23.1673 261.588 24.0743 262.021 24.4091 262.454C24.8627 263.024 25.1111 263.607 25.1219 264.194C24.9384 264.384 25.1328 264.499 25.6835 264.535C25.8671 264.861 25.1975 264.985 25.0571 265.312C24.8627 265.745 25.9427 265.798 26.4179 266.142C27.1414 266.672 25.5215 267.33 25.2299 267.847C24.852 268.532 26.4179 269.23 26.5475 269.892C26.6663 270.426 26.4719 270.948 26.0075 271.403C25.0896 272.268 22.7676 273.562 23.6208 274.459C24.0636 274.914 24.5712 274.601 23.826 275.148C22.6273 276.045 20.0679 276.747 18.5344 277.591C18.0268 277.869 18.3075 278.139 17.8755 278.381C17.2816 278.708 15.2621 278.907 14.4954 279.269C13.2858 279.821 13.8799 280.325 14.1822 280.939C14.5062 281.601 14.2146 282.012 13.8043 282.608C13.4263 283.134 13.4586 283.545 12.7891 284.088C11.9683 284.755 11.2555 285.387 10.91 286.089C10.694 286.522 11.0612 286.5 11.3312 286.818C11.666 287.211 11.5256 287.595 11.3312 288.001C11.1044 288.509 10.2837 289.146 10.9208 289.649C11.342 289.98 12.1195 290.06 12.2275 290.515C12.4219 291.31 13.5342 291.999 13.6854 292.816C13.707 292.955 13.6962 293.076 13.6854 293.186C13.653 293.491 13.6315 293.717 14.3442 294.022C15.1866 294.384 15.7049 294.353 15.8237 294.923C16.0072 295.718 15.2945 296.782 18.4047 297.219C17.4868 298.257 15.7481 299.207 15.0029 300.285C14.5926 300.872 13.6206 301.893 14.4197 302.493C14.9921 302.931 15.6186 303.116 15.8021 303.686C15.9533 304.189 15.9641 304.808 16.6661 305.28C17.26 305.682 17.692 305.386 17.2384 305.943C16.9684 306.292 16.7092 306.574 16.6768 306.928C16.6768 307.019 16.6984 307.099 16.7308 307.177C16.7848 307.336 16.8389 307.483 16.6121 307.688C16.2557 308.032 11.8063 310.157 16.3852 310.143C16.612 310.669 16.8497 311.256 18.502 311.552C17.314 312.14 14.3226 312.316 12.9403 312.944C12.2384 313.263 12.2599 313.422 12.2815 313.659C12.2923 313.77 12.3032 313.897 12.2384 314.065C12.1196 314.428 11.6336 314.732 11.4824 315.081C11.2448 315.616 11.5039 316.208 11.5039 316.747C11.5039 317.1 11.5796 317.462 11.5148 317.82C11.4284 318.306 10.8344 318.756 10.7265 319.255C10.6077 319.847 10.7265 320.439 11.2664 321H65L65 -33Z" fill="#EDE8DC"/>
</g>
<rect x="62" width="229" height="52" fill="#EDE8DC"/>
</g>
<defs>
<filter id="filter0_d_304_614" x="286" y="-3" width="60" height="358" filterUnits="userSpaceOnUse" color-interpolation-filters="sRGB">
<feFlood flood-opacity="0" result="BackgroundImageFix"/>
<feColorMatrix in="SourceAlpha" type="matrix" values="0 0 0 0 0 0 0 0 0 0 0 0 0 0 0 0 0 0 127 0" result="hardAlpha"/>
<feOffset dy="-1"/>
<feGaussianBlur stdDeviation="1"/>
<feComposite in2="hardAlpha" operator="out"/>
<feColorMatrix type="matrix" values="0 0 0 0 0 0 0 0 0 0 0 0 0 0 0 0 0 0 0.25 0"/>
<feBlend mode="normal" in2="BackgroundImageFix" result="effect1_dropShadow_304_614"/>
<feBlend mode="normal" in="SourceGraphic" in2="effect1_dropShadow_304_614" result="shape"/>
</filter>
<filter id="filter1_d_304_614" x="7" y="-36" width="60" height="358" filterUnits="userSpaceOnUse" color-interpolation-filters="sRGB">
<feFlood flood-opacity="0" result="BackgroundImageFix"/>
<feColorMatrix in="SourceAlpha" type="matrix" values="0 0 0 0 0 0 0 0 0 0 0 0 0 0 0 0 0 0 127 0" result="hardAlpha"/>
<feOffset dy="-1"/>
<feGaussianBlur stdDeviation="1"/>
<feComposite in2="hardAlpha" operator="out"/>
<feColorMatrix type="matrix" values="0 0 0 0 0 0 0 0 0 0 0 0 0 0 0 0 0 0 0.25 0"/>
<feBlend mode="normal" in2="BackgroundImageFix" result="effect1_dropShadow_304_614"/>
<feBlend mode="normal" in="SourceGraphic" in2="effect1_dropShadow_304_614" result="shape"/>
</filter>
<clipPath id="clip0_304_614">
<rect width="344" height="52" fill="white"/>
</clipPath>
</defs>
</svg>
