<svg width="23" height="23" viewBox="0 0 23 23" fill="none" xmlns="http://www.w3.org/2000/svg">
<g clip-path="url(#clip0_547_587)">
<path d="M20.6039 3.83333H18.0483V5.74999C18.0483 5.93457 18.012 6.11735 17.9414 6.28788C17.8707 6.4584 17.7672 6.61335 17.6367 6.74387C17.5061 6.87439 17.3512 6.97792 17.1807 7.04856C17.0101 7.11919 16.8274 7.15555 16.6428 7.15555C16.4582 7.15555 16.2754 7.11919 16.1049 7.04856C15.9344 6.97792 15.7794 6.87439 15.6489 6.74387C15.5184 6.61335 15.4149 6.4584 15.3442 6.28788C15.2736 6.11735 15.2372 5.93457 15.2372 5.74999V3.83333H7.79417V5.74999C7.79417 6.12277 7.64609 6.48028 7.3825 6.74387C7.1189 7.00746 6.7614 7.15555 6.38862 7.15555C6.01584 7.15555 5.65833 7.00746 5.39474 6.74387C5.13115 6.48028 4.98306 6.12277 4.98306 5.74999V3.83333H2.42751C2.27547 3.8316 2.12462 3.86037 1.9839 3.91795C1.84317 3.97554 1.71542 4.06075 1.60821 4.16857C1.50099 4.27638 1.41648 4.4046 1.35968 4.54564C1.30288 4.68668 1.27494 4.83769 1.27751 4.98971V19.288C1.27497 19.4374 1.30188 19.5858 1.3567 19.7247C1.41151 19.8637 1.49317 19.9905 1.59699 20.0978C1.70082 20.2052 1.82478 20.2911 1.9618 20.3506C2.09882 20.41 2.24622 20.4419 2.39556 20.4444H20.6039C20.7532 20.4419 20.9006 20.41 21.0377 20.3506C21.1747 20.2911 21.2986 20.2052 21.4025 20.0978C21.5063 19.9905 21.5879 19.8637 21.6428 19.7247C21.6976 19.5858 21.7245 19.4374 21.722 19.288V4.98971C21.7245 4.84037 21.6976 4.69198 21.6428 4.55303C21.5879 4.41409 21.5063 4.2873 21.4025 4.17992C21.2986 4.07253 21.1747 3.98665 21.0377 3.92718C20.9006 3.86771 20.7532 3.83582 20.6039 3.83333ZM6.38862 16.6111H5.11084V15.3333H6.38862V16.6111ZM6.38862 13.4167H5.11084V12.1389H6.38862V13.4167ZM6.38862 10.2222H5.11084V8.94444H6.38862V10.2222ZM10.222 16.6111H8.94418V15.3333H10.222V16.6111ZM10.222 13.4167H8.94418V12.1389H10.222V13.4167ZM10.222 10.2222H8.94418V8.94444H10.222V10.2222ZM14.0553 16.6111H12.7775V15.3333H14.0553V16.6111ZM14.0553 13.4167H12.7775V12.1389H14.0553V13.4167ZM14.0553 10.2222H12.7775V8.94444H14.0553V10.2222ZM17.8886 16.6111H16.6108V15.3333H17.8886V16.6111ZM17.8886 13.4167H16.6108V12.1389H17.8886V13.4167ZM17.8886 10.2222H16.6108V8.94444H17.8886V10.2222Z" fill="#A1988B"/>
<path d="M6.38889 6.38894C6.55833 6.38894 6.72084 6.32163 6.84065 6.20182C6.96047 6.082 7.02778 5.9195 7.02778 5.75005V1.91672C7.02778 1.74728 6.96047 1.58477 6.84065 1.46496C6.72084 1.34514 6.55833 1.27783 6.38889 1.27783C6.21945 1.27783 6.05694 1.34514 5.93713 1.46496C5.81731 1.58477 5.75 1.74728 5.75 1.91672V5.75005C5.75 5.9195 5.81731 6.082 5.93713 6.20182C6.05694 6.32163 6.21945 6.38894 6.38889 6.38894Z" fill="#A1988B"/>
<path d="M16.6115 6.38894C16.781 6.38894 16.9435 6.32163 17.0633 6.20182C17.1831 6.082 17.2504 5.9195 17.2504 5.75005V1.91672C17.2504 1.74728 17.1831 1.58477 17.0633 1.46496C16.9435 1.34514 16.781 1.27783 16.6115 1.27783C16.4421 1.27783 16.2796 1.34514 16.1598 1.46496C16.04 1.58477 15.9727 1.74728 15.9727 1.91672V5.75005C15.9727 5.9195 16.04 6.082 16.1598 6.20182C16.2796 6.32163 16.4421 6.38894 16.6115 6.38894Z" fill="#A1988B"/>
</g>
<defs>
<clipPath id="clip0_547_587">
<rect width="23" height="23" fill="white"/>
</clipPath>
</defs>
</svg>
