<svg width="25" height="27" viewBox="0 0 25 27" fill="none" xmlns="http://www.w3.org/2000/svg">
<path d="M4 13.5H22V22.05C22 22.302 21.9052 22.5436 21.7364 22.7218C21.5676 22.8999 21.3387 23 21.1 23H4.9C4.66131 23 4.43239 22.8999 4.2636 22.7218C4.09482 22.5436 4 22.302 4 22.05V13.5ZM17.5 5.9H21.1C21.3387 5.9 21.5676 6.00009 21.7364 6.17825C21.9052 6.35641 22 6.59804 22 6.85V11.6H4V6.85C4 6.59804 4.09482 6.35641 4.2636 6.17825C4.43239 6.00009 4.66131 5.9 4.9 5.9H8.5V4H10.3V5.9H15.7V4H17.5V5.9Z" fill="#A1988B"/>
</svg>
