<svg width="25" height="25" viewBox="0 0 25 25" fill="none" xmlns="http://www.w3.org/2000/svg">
<g clip-path="url(#clip0_549_582)">
<path d="M8.33377 11.2083H7.7296C6.90513 11.1785 6.08332 11.3184 5.31519 11.6195C4.54707 11.9205 3.849 12.3762 3.26432 12.9583L3.09766 13.1527V18.9027H5.93099V15.6388L6.31293 15.2083L6.48655 15.0069C7.39066 14.0781 8.51625 13.3946 9.75738 13.0208C9.13599 12.548 8.64591 11.924 8.33377 11.2083Z" fill="#A1988B"/>
<path d="M21.7635 12.9375C21.1788 12.3555 20.4807 11.8998 19.7126 11.5987C18.9445 11.2977 18.1227 11.1577 17.2982 11.1875C17.0453 11.1882 16.7927 11.2021 16.5412 11.2292C16.2232 11.9007 15.7465 12.4846 15.1523 12.9306C16.4773 13.2971 17.6776 14.0173 18.6246 15.0139L18.7982 15.2084L19.1732 15.6389V18.9097H21.9093V13.132L21.7635 12.9375Z" fill="#A1988B"/>
<path d="M7.70792 9.85419H7.9232C7.82317 8.99533 7.97387 8.12588 8.35711 7.35078C8.74034 6.57569 9.33973 5.92808 10.0829 5.48614C9.81352 5.07458 9.44185 4.74003 9.00431 4.51527C8.56677 4.2905 8.07836 4.18322 7.5869 4.20394C7.09544 4.22465 6.61779 4.37264 6.20071 4.63341C5.78363 4.89419 5.44143 5.25882 5.20761 5.69159C4.97379 6.12436 4.85637 6.61043 4.86686 7.10222C4.87734 7.594 5.01536 8.07463 5.2674 8.49704C5.51945 8.91946 5.87688 9.26917 6.30469 9.51194C6.7325 9.75472 7.21603 9.88222 7.70792 9.88197V9.85419Z" fill="#A1988B"/>
<path d="M16.9657 9.33329C16.9741 9.4929 16.9741 9.65285 16.9657 9.81246C17.099 9.83359 17.2336 9.84519 17.3685 9.84718H17.5004C17.9902 9.82107 18.4648 9.66859 18.8781 9.4046C19.2914 9.1406 19.6293 8.77409 19.8589 8.34073C20.0886 7.90738 20.2021 7.42195 20.1884 6.93172C20.1747 6.44148 20.0343 5.96314 19.7809 5.54326C19.5275 5.12338 19.1696 4.77628 18.7423 4.53574C18.3149 4.2952 17.8325 4.16943 17.3421 4.17066C16.8516 4.1719 16.3699 4.3001 15.9437 4.54278C15.5175 4.78547 15.1615 5.13437 14.9102 5.55551C15.5387 5.96589 16.0555 6.52586 16.4143 7.18521C16.773 7.84457 16.9625 8.58266 16.9657 9.33329Z" fill="#A1988B"/>
<path d="M12.4098 12.4444C14.1242 12.4444 15.514 11.0546 15.514 9.34025C15.514 7.62587 14.1242 6.23608 12.4098 6.23608C10.6954 6.23608 9.30566 7.62587 9.30566 9.34025C9.30566 11.0546 10.6954 12.4444 12.4098 12.4444Z" fill="#A1988B"/>
<path d="M12.576 14.0973C11.669 14.0607 10.7641 14.2079 9.91556 14.5301C9.06703 14.8524 8.29246 15.3429 7.63845 15.9723L7.46484 16.1667V20.5626C7.46755 20.7058 7.49845 20.847 7.55576 20.9782C7.61307 21.1095 7.69567 21.2282 7.79885 21.3275C7.90203 21.4268 8.02377 21.5048 8.15711 21.557C8.29045 21.6093 8.43277 21.6348 8.57596 21.632H16.5551C16.6983 21.6348 16.8406 21.6093 16.974 21.557C17.1073 21.5048 17.229 21.4268 17.3322 21.3275C17.4354 21.2282 17.518 21.1095 17.5753 20.9782C17.6326 20.847 17.6635 20.7058 17.6662 20.5626V16.1806L17.4996 15.9723C16.8498 15.341 16.0779 14.849 15.2313 14.5266C14.3846 14.2042 13.4811 14.0581 12.576 14.0973Z" fill="#A1988B"/>
</g>
<defs>
<clipPath id="clip0_549_582">
<rect width="25" height="25" fill="white"/>
</clipPath>
</defs>
</svg>
