<svg width="24" height="24" viewBox="0 0 24 24" fill="none" xmlns="http://www.w3.org/2000/svg">
<path d="M8.75 10C8.75 9.13805 9.09241 8.3114 9.7019 7.7019C10.3114 7.09241 11.138 6.75 12 6.75C12.862 6.75 13.6886 7.09241 14.2981 7.7019C14.9076 8.3114 15.25 9.13805 15.25 10C15.25 10.862 14.9076 11.6886 14.2981 12.2981C13.6886 12.9076 12.862 13.25 12 13.25C11.138 13.25 10.3114 12.9076 9.7019 12.2981C9.09241 11.6886 8.75 10.862 8.75 10Z" fill="#A1988B"/>
<path fill-rule="evenodd" clip-rule="evenodd" d="M3.77355 8.877C3.93944 6.86658 4.85519 4.99203 6.33903 3.62546C7.82287 2.25888 9.7663 1.50019 11.7836 1.5H12.2155C14.2328 1.50019 16.1762 2.25888 17.6601 3.62546C19.1439 4.99203 20.0597 6.86658 20.2255 8.877C20.4109 11.1215 19.7179 13.3503 18.2925 15.094L13.4995 20.956C13.3179 21.1783 13.0891 21.3575 12.8296 21.4806C12.5702 21.6036 12.2867 21.6675 11.9995 21.6675C11.7124 21.6675 11.4289 21.6036 11.1695 21.4806C10.91 21.3575 10.6812 21.1783 10.4995 20.956L5.70755 15.094C4.28186 13.3505 3.58851 11.1216 3.77355 8.877ZM11.9995 5.25C10.7398 5.25 9.53159 5.75045 8.64079 6.64124C7.75 7.53204 7.24955 8.74022 7.24955 10C7.24955 11.2598 7.75 12.468 8.64079 13.3588C9.53159 14.2496 10.7398 14.75 11.9995 14.75C13.2593 14.75 14.4675 14.2496 15.3583 13.3588C16.2491 12.468 16.7495 11.2598 16.7495 10C16.7495 8.74022 16.2491 7.53204 15.3583 6.64124C14.4675 5.75045 13.2593 5.25 11.9995 5.25Z" fill="#A1988B"/>
</svg>
