<svg width="593" height="583" viewBox="0 0 593 583" fill="none" xmlns="http://www.w3.org/2000/svg">
<path d="M505.994 402.272C527.994 425.272 543.994 452.272 506.994 497.272C471.994 539.272 445.994 539.272 414.994 539.272C338.994 539.272 226.994 443.272 171.994 387.272C118.994 332.272 28.9941 217.272 28.9941 136.272C28.9941 106.272 41.9941 77.2721 75.9941 55.2721C110.994 32.2721 143.994 33.2721 170.994 66.2721C192.994 93.2721 251.994 158.272 214.994 208.272C189.994 241.272 192.994 240.272 216.994 267.272C241.994 295.272 267.994 322.272 305.994 356.272C326.994 372.272 322.994 375.272 360.994 349.272C404.994 319.272 483.994 382.272 505.994 402.272Z" fill="#EEECE7"/>
</svg>
